<svg version="1.1" id="Layer_1" xmlns="http://www.w3.org/2000/svg" xmlns:xlink="http://www.w3.org/1999/xlink" x="0px" y="0px"
	 width="100%" viewBox="0 0 192 256" enable-background="new 0 0 192 256" xml:space="preserve">
<path fill="#000000" opacity="1.000000" stroke="none" 
	d="
M59.000000,257.000000 
	C39.676983,257.000000 20.353966,257.000000 1.015474,257.000000 
	C1.015474,171.722519 1.015474,86.445030 1.015474,1.083772 
	C64.909904,1.083772 128.819962,1.083772 192.865005,1.083772 
	C192.865005,86.333191 192.865005,171.666565 192.865005,257.000000 
	C173.917007,257.000000 154.927170,257.000000 135.475037,256.570618 
	C134.951492,254.427521 134.890228,252.713821 134.818832,250.663513 
	C132.555756,248.184097 130.302826,246.041290 127.929062,243.594696 
	C126.516899,241.816101 125.225578,240.341309 123.976578,238.421631 
	C123.960342,234.977753 123.901794,231.978729 123.911415,228.563675 
	C124.665909,223.470474 125.352226,218.793335 126.460144,214.068573 
	C127.901413,213.538239 129.668640,213.214188 129.810654,212.545166 
	C130.407883,209.731659 130.519440,206.815079 130.881653,203.563629 
	C131.331070,201.507309 131.707611,199.823593 132.433716,198.114929 
	C137.498810,201.100830 142.214340,204.111710 146.956146,207.081604 
	C146.982422,207.040604 146.885101,207.037521 146.975815,207.293854 
	C147.365845,207.738663 147.665146,207.927155 147.961517,208.067154 
	C147.958557,208.018677 147.877167,208.071686 147.934860,208.431793 
	C149.305573,209.569260 150.618576,210.346634 151.965424,211.079102 
	C151.999252,211.034210 151.893311,211.071793 152.055878,211.372894 
	C153.476425,212.065399 154.734406,212.456818 156.201752,212.918106 
	C156.411102,212.987976 156.847672,213.053207 157.040192,213.368790 
	C159.819107,214.404297 162.405502,215.124237 165.313980,215.914017 
	C166.073242,216.024719 166.510452,216.065552 167.185669,216.427460 
	C169.966904,216.532761 172.510117,216.316971 175.381989,216.059723 
	C176.148544,215.968201 176.586472,215.918137 177.288422,215.874390 
	C177.752365,215.601242 177.952255,215.321777 178.373840,215.014862 
	C178.595520,214.987381 179.025299,214.865448 179.288605,214.871429 
	C179.751602,214.598816 179.951279,214.320236 180.368805,213.967438 
	C180.862564,213.709930 181.014526,213.453278 181.355865,212.961792 
	C183.160202,209.551590 184.651260,206.302841 186.453918,202.848724 
	C187.212875,200.448563 187.660217,198.253738 188.423813,195.842865 
	C189.313614,192.560059 189.455414,189.770355 184.894806,189.597351 
	C182.828690,188.177673 180.928040,187.052307 179.005280,185.601837 
	C178.336655,184.473465 177.690125,183.670197 176.974228,182.646332 
	C176.725555,182.145462 176.470444,181.988037 175.988297,181.678223 
	C175.241119,181.320618 174.645157,181.238220 173.628845,181.087006 
	C171.792801,181.064301 170.377121,181.110397 168.573532,181.096512 
	C165.078903,182.337387 161.972168,183.638260 158.499969,184.967712 
	C155.660019,183.201035 153.185532,181.405746 150.905731,179.354858 
	C151.423431,175.429001 147.528625,171.975510 143.926727,172.553894 
	C141.186615,169.548874 138.596710,166.861542 135.746338,164.066193 
	C135.269196,163.659302 135.052475,163.360397 134.901367,162.705429 
	C135.350204,161.249893 135.733444,160.150406 136.522827,159.035004 
	C138.281281,158.968719 139.633621,158.918350 141.326248,158.932068 
	C142.123444,158.946411 142.580368,158.896652 143.293427,158.847809 
	C143.747879,158.579041 143.946182,158.309341 144.495499,158.019699 
	C151.499222,154.259689 155.078629,148.897766 153.884857,140.603424 
	C151.600067,136.179550 149.255798,132.137787 146.959320,127.670837 
	C147.258957,125.644661 147.446594,124.030449 147.773346,122.444901 
	C149.509796,114.018929 151.281143,105.600151 153.351166,96.920822 
	C154.107239,92.912392 154.974472,89.153191 154.896103,85.413795 
	C154.786453,80.181053 147.147842,75.303146 143.020905,77.642914 
	C140.474579,79.086555 138.259445,81.114380 135.605759,82.903931 
	C134.928421,82.943695 134.540939,82.959457 134.072250,82.647034 
	C133.343567,81.185318 132.696121,80.051796 132.038574,78.955109 
	C132.028473,78.991943 132.096390,78.956970 132.040909,78.625885 
	C131.340210,77.168861 130.695007,76.042915 130.041260,74.955109 
	C130.032715,74.993256 130.098297,74.950706 130.036285,74.595085 
	C128.657822,73.536591 127.341377,72.833717 125.705460,72.066429 
	C124.953903,71.956390 124.521805,71.910767 123.810989,71.577034 
	C119.363358,70.899765 115.194435,70.510612 110.705238,70.059967 
	C109.952263,69.955559 109.519569,69.912643 108.818573,69.584656 
	C106.708778,69.241409 104.867287,69.183243 102.617691,69.066727 
	C100.837090,68.960045 99.464607,68.911705 97.787918,68.565186 
	C89.419228,68.181808 81.344673,67.837700 73.295662,68.150566 
	C70.444023,68.261414 67.654610,69.973022 64.615616,70.972992 
	C64.394440,70.992149 63.962078,71.093117 63.714035,71.128159 
	C63.280727,71.431885 63.095463,71.700569 62.945168,71.976074 
	C62.980133,71.982903 62.973564,71.911949 62.726662,72.009834 
	C62.289852,72.397987 62.099941,72.688263 61.945919,72.980118 
	C61.981808,72.981705 61.972691,72.910446 61.751682,73.012093 
	C61.228096,73.310661 61.091557,73.588997 61.064247,74.166519 
	C61.007442,74.384293 60.969826,74.832848 60.758419,74.961349 
	C60.246227,75.295166 60.107563,75.579506 60.074436,76.380661 
	C60.054932,78.873947 60.092022,80.929443 60.082035,83.452850 
	C60.058685,94.940269 60.082413,105.959763 60.056244,117.223083 
	C60.006344,117.466904 59.954838,117.961983 59.599556,117.989517 
	C53.003880,121.116638 48.516808,125.515091 48.086746,133.395828 
	C47.988541,142.262756 52.480297,148.408020 60.120087,150.426224 
	C61.158298,150.817688 62.022858,150.928864 62.921646,151.424713 
	C62.042191,154.224640 61.128506,156.639923 60.133636,159.281143 
	C60.052444,159.507095 59.969933,159.980133 59.701542,160.114685 
	C59.368088,160.828583 59.303028,161.407928 59.123501,162.221191 
	C58.971432,162.624557 58.933826,162.794052 58.596420,163.083771 
	C56.502811,165.089081 54.709011,166.974167 52.588173,168.791580 
	C49.296162,166.680908 44.728088,169.521652 43.898651,173.872192 
	C39.968929,176.260208 36.326664,178.085876 31.849030,175.574875 
	C30.020943,174.592957 28.422892,173.783051 26.731255,173.302734 
	C19.650608,171.292297 14.714702,173.001526 12.576775,178.132111 
	C9.540383,179.755493 6.819495,181.226089 3.804324,182.883163 
	C4.394648,187.040451 5.279254,191.011261 6.092493,195.321136 
	C6.059269,196.118195 6.097413,196.576202 6.137354,197.292450 
	C6.414440,197.743790 6.689728,197.936905 6.990505,198.487122 
	C8.725735,203.044067 10.643278,207.792496 15.753831,207.810547 
	C22.076622,207.832886 28.728447,207.421051 34.649376,205.438507 
	C42.355606,202.858170 49.483246,198.549866 57.005600,195.285126 
	C58.410557,196.077103 59.669804,196.569168 60.980141,197.440552 
	C61.400879,199.539658 61.770519,201.259430 62.070663,203.386627 
	C62.345600,205.991699 62.415890,208.283798 63.129311,210.354294 
	C63.617855,211.772156 65.001900,212.881454 66.001289,214.511780 
	C67.396873,219.589798 68.776787,224.284698 70.094109,229.427399 
	C70.042953,232.872330 70.054390,235.869461 69.817703,239.090347 
	C68.681335,240.532562 67.793091,241.751022 66.607254,243.063812 
	C65.504333,244.090942 64.698982,245.023727 63.589355,246.067963 
	C61.911652,247.787537 60.538227,249.395691 59.091595,251.426651 
	C59.012257,253.566315 59.006126,255.283157 59.000000,257.000000 
z"/>
<path fill="#C88A55" opacity="1.000000" stroke="none" 
	d="
M134.828964,251.000137 
	C134.890228,252.713821 134.951492,254.427521 135.006378,256.570618 
	C123.312439,257.000000 111.624878,257.000000 99.464066,256.569519 
	C99.047752,254.421890 99.104691,252.704697 99.619217,250.985229 
	C111.660866,250.988663 123.244919,250.994400 134.828964,251.000137 
z"/>
<path fill="#C88A55" opacity="1.000000" stroke="none" 
	d="
M59.468658,257.000000 
	C59.006126,255.283157 59.012257,253.566315 59.548820,251.422913 
	C71.667686,250.994659 83.256119,250.992966 94.915718,251.415588 
	C94.991257,253.559937 94.995628,255.279968 95.000000,257.000000 
	C83.312439,257.000000 71.624878,257.000000 59.468658,257.000000 
z"/>
<path fill="#000000" opacity="1.000000" stroke="none" 
	d="
M95.400009,257.000000 
	C94.995628,255.279968 94.991257,253.559937 94.985886,251.000732 
	C94.933502,248.771408 94.882111,247.381241 94.902740,245.563156 
	C94.935463,243.108414 94.896172,241.081573 94.913971,238.630264 
	C94.595421,235.130539 94.219772,232.055298 93.922150,228.578476 
	C94.479179,225.967026 94.958191,223.757156 95.788956,219.924500 
	C97.250366,221.685333 98.416359,222.614304 98.925179,223.820480 
	C99.603043,225.427414 99.769653,227.249985 100.092514,229.402679 
	C99.731499,232.897980 99.433846,235.970551 99.078506,239.284286 
	C99.020813,239.525467 99.179581,239.994278 99.108841,240.389740 
	C99.087128,241.852158 99.136169,242.919113 99.099731,244.415833 
	C99.063377,246.892899 99.112495,248.940201 99.161621,250.987518 
	C99.104691,252.704697 99.047752,254.421890 98.995407,256.569519 
	C97.933342,257.000000 96.866676,257.000000 95.400009,257.000000 
z"/>
<path fill="#3C3E41" opacity="1.000000" stroke="none" 
	d="
M153.040405,97.178879 
	C151.281143,105.600151 149.509796,114.018929 147.773346,122.444901 
	C147.446594,124.030449 147.258957,125.644661 146.629242,127.783600 
	C145.522720,130.551010 144.794037,132.780472 143.960968,135.382080 
	C143.237228,138.160629 143.012222,140.773376 141.890656,142.917023 
	C140.703766,145.185455 138.663727,147.007523 136.652954,148.984283 
	C135.621002,148.911194 134.932434,148.878357 133.979263,148.561462 
	C133.236130,146.054123 132.036957,143.699631 132.413376,141.631973 
	C133.571686,135.269257 135.359283,129.022537 136.848129,122.717949 
	C137.582047,119.610085 138.196655,116.474052 138.925034,113.071495 
	C115.144356,116.781746 92.523148,115.742783 69.997009,106.981766 
	C69.997009,116.370796 70.264221,125.158279 69.816826,133.909225 
	C69.698952,136.214813 67.372559,138.407486 65.702118,140.512527 
	C64.584412,140.339966 63.824924,140.306885 62.766430,140.025848 
	C58.302643,135.785919 60.835602,130.582260 60.020317,125.549255 
	C60.029655,122.724472 59.992249,120.343231 59.954842,117.961983 
	C59.954838,117.961983 60.006344,117.466904 60.431656,117.108612 
	C61.238605,115.227196 61.928387,113.708443 61.950085,112.180214 
	C62.061085,104.362267 62.062508,96.541008 61.953854,88.722969 
	C61.927315,86.813171 61.342484,84.911148 61.062626,82.650284 
	C63.547901,77.942200 67.873260,76.966591 72.142754,77.113258 
	C80.235443,77.391251 88.306267,78.321266 96.384521,79.000084 
	C108.251495,79.997253 120.117027,81.011673 132.186523,82.252289 
	C132.977737,82.648972 133.565613,82.812096 134.153473,82.975227 
	C134.540939,82.959457 134.928421,82.943695 135.876129,83.187386 
	C138.522141,83.948685 140.608353,84.448685 142.693604,84.952667 
	C151.745743,87.140442 152.930008,88.540405 153.040405,97.178879 
z"/>
<path fill="#BD7958" opacity="1.000000" stroke="none" 
	d="
M66.060333,140.652008 
	C67.372559,138.407486 69.698952,136.214813 69.816826,133.909225 
	C70.264221,125.158279 69.997009,116.370796 69.997009,106.981766 
	C92.523148,115.742783 115.144356,116.781746 138.925034,113.071495 
	C138.196655,116.474052 137.582047,119.610085 136.848129,122.717949 
	C135.359283,129.022537 133.571686,135.269257 132.413376,141.631973 
	C132.036957,143.699631 133.236130,146.054123 133.682205,148.809586 
	C131.642563,153.297073 130.467468,157.040970 136.116699,159.050934 
	C135.733444,160.150406 135.350204,161.249893 134.597595,162.729813 
	C133.481628,163.733139 132.735031,164.356033 131.705811,165.128326 
	C129.977692,166.174469 128.532166,167.071213 126.622185,167.956970 
	C122.786003,167.915359 119.414299,167.884705 115.774536,167.639557 
	C114.370209,167.306458 113.233940,167.187851 111.663300,167.049896 
	C102.152702,166.022842 93.076462,165.015152 83.604301,163.969788 
	C80.837059,163.631699 78.465736,163.331284 75.823212,163.025269 
	C75.373154,163.046432 75.194305,163.073196 74.760895,163.068008 
	C74.335358,163.041092 74.164398,163.046127 73.697678,162.893051 
	C72.320908,162.528656 71.239883,162.322388 69.722458,162.088409 
	C66.262314,161.058853 63.238567,160.057022 60.214821,159.055191 
	C61.128506,156.639923 62.042191,154.224640 63.323711,151.402756 
	C64.791595,149.662567 66.564438,148.448166 66.826889,146.966263 
	C67.180542,144.969391 66.370789,142.766495 66.060333,140.652008 
M91.998070,133.085297 
	C91.789680,130.523132 91.581291,127.960953 92.236343,125.662178 
	C96.107933,126.778091 97.796944,125.375168 97.278152,120.765251 
	C90.436127,119.646927 83.562256,118.523399 76.762939,117.412056 
	C74.775612,121.541359 76.311287,123.351486 79.650368,124.636757 
	C78.909821,125.706955 77.940544,126.685638 77.469223,127.863564 
	C75.650871,132.407913 78.199730,138.448013 82.364342,139.774841 
	C86.410286,141.063858 90.664879,138.497070 91.998070,133.085297 
M125.749313,129.074402 
	C127.346420,128.998505 128.943527,128.922623 130.435181,128.851730 
	C132.047668,124.664337 130.855286,123.029327 126.698685,123.021072 
	C122.759529,123.013252 118.816917,122.250717 114.884842,122.321373 
	C113.162033,122.352325 110.607979,123.218063 110.007248,124.464348 
	C109.477577,125.563210 111.140434,127.718910 111.999519,129.807632 
	C111.999519,132.320786 111.999519,135.555298 111.458847,139.137817 
	C112.830956,142.566360 115.670067,144.818451 118.960976,143.645370 
	C121.846329,142.616852 124.993729,140.099243 126.239723,137.411575 
	C127.207230,135.324631 125.422745,131.961884 125.749313,129.074402 
M94.996445,142.837158 
	C91.327499,144.090958 87.542831,145.099762 84.058884,146.745270 
	C82.989380,147.250397 82.207283,149.543365 82.323662,150.931290 
	C82.391891,151.744965 84.463341,152.957001 85.682259,153.017944 
	C95.135941,153.490494 104.504646,154.517502 113.862732,155.978851 
	C117.494949,156.546066 118.965538,153.845871 116.404381,151.122711 
	C113.582146,148.121964 109.579628,146.231277 106.397743,143.248779 
	C106.469025,141.223404 107.080437,137.626511 106.521614,137.434448 
	C103.495468,136.394363 100.167000,135.895737 96.977867,136.032257 
	C96.498787,136.052750 96.204948,140.401199 94.996445,142.837158 
z"/>
<path fill="#464B52" opacity="1.000000" stroke="none" 
	d="
M131.983170,82.018745 
	C120.117027,81.011673 108.251495,79.997253 96.384521,79.000084 
	C88.306267,78.321266 80.235443,77.391251 72.142754,77.113258 
	C67.873260,76.966591 63.547901,77.942200 60.841209,82.646378 
	C60.571510,82.997719 60.129112,82.984932 60.129112,82.984932 
	C60.092022,80.929443 60.054932,78.873947 60.269623,76.243835 
	C60.747505,75.431534 60.896980,75.152740 60.969826,74.832848 
	C60.969826,74.832848 61.007442,74.384293 61.256634,74.040642 
	C61.732094,73.476761 61.887718,73.214577 61.972691,72.910446 
	C61.972691,72.910446 61.981808,72.981705 62.177872,72.862633 
	C62.573814,72.466354 62.773689,72.189156 62.973564,71.911949 
	C62.973564,71.911949 62.980133,71.982903 63.163013,71.885101 
	C63.629173,71.625031 63.834568,71.393639 63.962078,71.093117 
	C63.962078,71.093117 64.394440,70.992149 65.062698,70.988434 
	C75.140228,70.657501 84.551277,70.370918 93.956833,69.958748 
	C95.348587,69.897758 96.714340,69.243263 98.092117,68.863358 
	C99.464607,68.911705 100.837090,68.960045 102.709137,69.413712 
	C105.168091,69.835930 107.127487,69.852829 109.086876,69.869728 
	C109.519569,69.912643 109.952263,69.955559 110.810944,70.424988 
	C115.521187,71.189384 119.805443,71.527260 124.089706,71.865143 
	C124.521805,71.910767 124.953903,71.956390 125.768677,72.391235 
	C127.467003,73.503860 128.782654,74.227280 130.098297,74.950706 
	C130.098297,74.950706 130.032715,74.993256 130.025986,75.338203 
	C130.711639,76.774422 131.404007,77.865700 132.096390,78.956970 
	C132.096390,78.956970 132.028473,78.991943 132.021683,79.342819 
	C132.004318,80.468719 131.993744,81.243729 131.983170,82.018745 
z"/>
<path fill="#BD7958" opacity="1.000000" stroke="none" 
	d="
M32.036018,175.898468 
	C36.326664,178.085876 39.968929,176.260208 44.215405,174.002686 
	C46.901997,176.988510 48.920418,180.010284 50.929657,183.279114 
	C50.920479,183.526169 50.879948,184.019135 50.520775,184.069916 
	C42.380371,187.266632 34.722443,190.781021 26.778049,193.439331 
	C20.664488,195.485001 15.141471,193.367249 12.929047,188.091019 
	C11.083477,183.689667 8.173800,182.635742 4.098607,182.696701 
	C6.819495,181.226089 9.540383,179.755493 13.018576,178.142899 
	C17.838648,177.665131 21.908001,177.392181 25.961420,176.967239 
	C28.001215,176.753372 30.012074,176.263519 32.036018,175.898468 
z"/>
<path fill="#BD7958" opacity="1.000000" stroke="none" 
	d="
M150.711044,179.610458 
	C153.185532,181.405746 155.660019,183.201035 158.947021,184.982910 
	C161.841019,184.974426 163.922470,184.979324 166.447372,184.987488 
	C170.595749,185.340408 174.300674,185.690048 178.114197,186.184082 
	C178.490982,186.194641 178.759186,186.060791 179.027390,185.926941 
	C180.928040,187.052307 182.828690,188.177673 184.649506,189.867691 
	C182.803772,192.093185 180.461426,193.449112 179.388885,195.476715 
	C176.964188,200.060532 173.461517,201.712570 168.489792,201.352371 
	C161.675507,200.858688 155.697739,198.376694 150.131912,194.528580 
	C147.168121,192.479446 143.951096,190.796524 140.896225,188.715103 
	C140.944077,188.481888 141.025101,188.012604 141.316757,187.855408 
	C144.642624,185.002289 147.676834,182.306381 150.711044,179.610458 
z"/>
<path fill="#A66B4F" opacity="1.000000" stroke="none" 
	d="
M56.859886,194.985214 
	C49.483246,198.549866 42.355606,202.858170 34.649376,205.438507 
	C28.728447,207.421051 22.076622,207.832886 15.753831,207.810547 
	C10.643278,207.792496 8.725735,203.044067 6.904108,198.268036 
	C6.643817,197.402252 6.424929,197.183044 6.135555,197.034210 
	C6.097413,196.576202 6.059269,196.118195 6.401160,195.257568 
	C8.044359,194.608002 9.914200,193.697189 10.479559,194.213821 
	C18.771397,201.791306 27.589136,199.103561 36.436531,195.775604 
	C42.254402,193.587204 48.010399,191.234283 54.016380,189.226685 
	C55.112400,191.327286 55.986145,193.156250 56.859886,194.985214 
z"/>
<path fill="#B47254" opacity="1.000000" stroke="none" 
	d="
M53.794106,188.955048 
	C48.010399,191.234283 42.254402,193.587204 36.436531,195.775604 
	C27.589136,199.103561 18.771397,201.791306 10.479559,194.213821 
	C9.914200,193.697189 8.044359,194.608002 6.472527,194.918518 
	C5.279254,191.011261 4.394648,187.040451 3.804325,182.883163 
	C8.173800,182.635742 11.083477,183.689667 12.929047,188.091019 
	C15.141471,193.367249 20.664488,195.485001 26.778049,193.439331 
	C34.722443,190.781021 42.380371,187.266632 50.736355,184.327728 
	C52.323738,186.045731 53.336365,187.556732 54.211365,189.034180 
	C54.073738,189.000610 53.794106,188.955048 53.794106,188.955048 
z"/>
<path fill="#A3694D" opacity="1.000000" stroke="none" 
	d="
M166.947647,216.106400 
	C166.510452,216.065552 166.073242,216.024719 165.215240,215.569092 
	C162.145508,214.453934 159.496582,213.753571 156.847672,213.053192 
	C156.847672,213.053207 156.411102,212.987976 156.106720,212.576767 
	C154.499313,211.800964 153.196320,211.436386 151.893311,211.071793 
	C151.893311,211.071793 151.999252,211.034210 151.928406,210.730530 
	C150.530746,209.641800 149.203964,208.856750 147.877167,208.071686 
	C147.877167,208.071686 147.958557,208.018677 147.844269,207.830795 
	C147.448349,207.441116 147.166718,207.239319 146.885101,207.037521 
	C146.885101,207.037521 146.982422,207.040604 146.933487,206.723633 
	C145.456055,205.192047 144.057465,203.939896 142.592041,202.771576 
	C140.383102,201.010498 137.868713,199.407532 140.352386,196.045837 
	C143.663254,197.840912 146.557205,199.711609 149.593079,201.313293 
	C154.008926,203.643036 158.527069,205.778885 163.182037,208.228302 
	C163.908432,208.638046 164.454422,208.816879 165.414520,208.982529 
	C170.219055,208.311661 174.609451,207.654007 179.369537,207.011292 
	C184.315964,208.173080 179.881653,211.246201 181.042557,213.123245 
	C181.014526,213.453278 180.862564,213.709930 180.143875,214.049072 
	C179.407547,214.355255 179.182281,214.575424 179.025299,214.865448 
	C179.025299,214.865448 178.595520,214.987381 178.148315,215.096451 
	C177.406754,215.356110 177.181168,215.576965 177.024384,215.868073 
	C176.586472,215.918137 176.148544,215.968201 175.102539,215.779099 
	C171.978851,215.728745 169.463257,215.917572 166.947647,216.106400 
z"/>
<path fill="#4C4EA7" opacity="1.000000" stroke="none" 
	d="
M99.136192,239.043106 
	C99.433846,235.970551 99.731499,232.897980 100.510269,229.409241 
	C102.666336,228.975281 104.341293,228.957520 106.477531,228.957016 
	C110.951660,228.961105 114.964516,228.947952 119.382828,228.951996 
	C121.139946,228.972702 122.491592,228.976212 123.843246,228.979721 
	C123.901794,231.978729 123.960342,234.977753 123.516907,238.461884 
	C115.343468,239.021072 107.672020,239.095108 99.790054,239.099350 
	C99.579544,239.029556 99.136192,239.043106 99.136192,239.043106 
z"/>
<path fill="#4C4EA7" opacity="1.000000" stroke="none" 
	d="
M93.844124,228.980057 
	C94.219772,232.055298 94.595421,235.130539 94.554176,238.606842 
	C93.420494,239.061615 92.703705,239.115326 91.523041,239.105362 
	C84.061386,238.983322 77.063606,238.924957 70.065826,238.866592 
	C70.054390,235.869461 70.042953,232.872330 70.498222,229.434830 
	C72.313133,228.978378 73.661346,228.962296 75.471481,228.962555 
	C79.952904,228.969681 83.972397,228.960449 88.410278,228.964218 
	C90.500488,228.978165 92.172310,228.979111 93.844124,228.980057 
z"/>
<path fill="#B67454" opacity="1.000000" stroke="none" 
	d="
M140.848358,188.948303 
	C143.951096,190.796524 147.168121,192.479446 150.131912,194.528580 
	C155.697739,198.376694 161.675507,200.858688 168.489792,201.352371 
	C173.461517,201.712570 176.964188,200.060532 179.388885,195.476715 
	C180.461426,193.449112 182.803772,192.093185 184.814972,190.162003 
	C189.455414,189.770355 189.313614,192.560059 188.148178,195.642334 
	C184.521286,192.206940 183.802200,195.498062 182.850266,197.387024 
	C179.933258,203.175293 175.229218,206.406967 168.857666,205.782227 
	C164.668686,205.371475 160.397217,203.959534 156.567383,202.142822 
	C150.162262,199.104523 144.080643,195.384186 138.005905,191.677429 
	C139.048752,190.585388 139.948563,189.766846 140.848358,188.948303 
z"/>
<path fill="#E2995C" opacity="1.000000" stroke="none" 
	d="
M60.133633,159.281143 
	C63.238567,160.057022 66.262314,161.058853 69.622787,162.414368 
	C69.307053,164.936646 68.654579,167.105240 68.003166,169.638260 
	C67.535248,176.825882 79.485176,183.938416 85.010986,184.636703 
	C85.550262,184.704819 86.318230,182.963181 87.149620,182.074402 
	C87.319191,182.087204 87.659241,182.093445 87.737274,182.442993 
	C89.001564,184.545334 90.187813,186.298126 91.294617,188.372986 
	C91.137344,189.130249 91.059525,189.565430 90.580093,189.998566 
	C76.958771,187.320511 65.576508,182.238724 61.071426,167.993286 
	C60.823139,167.208191 59.841656,166.654953 59.160358,165.614258 
	C59.044918,164.477646 58.970570,163.720596 58.896225,162.963531 
	C58.933826,162.794052 58.971432,162.624557 59.387276,162.168091 
	C59.833656,161.247452 59.901794,160.613800 59.969933,159.980133 
	C59.969933,159.980133 60.052444,159.507095 60.133633,159.281143 
z"/>
<path fill="#F7F7F7" opacity="1.000000" stroke="none" 
	d="
M100.000565,239.169159 
	C107.672020,239.095108 115.343468,239.021072 123.474594,238.906769 
	C125.225578,240.341309 126.516899,241.816101 127.747284,243.930969 
	C125.821388,245.378845 124.007912,246.714081 122.082436,246.902023 
	C114.266022,247.665054 106.591316,246.734833 99.185204,243.986069 
	C99.136169,242.919113 99.087128,241.852158 99.278580,240.287872 
	C99.729210,239.621902 99.889709,239.414764 100.000565,239.169159 
z"/>
<path fill="#AE6F51" opacity="1.000000" stroke="none" 
	d="
M137.862869,191.950928 
	C144.080643,195.384186 150.162262,199.104523 156.567383,202.142822 
	C160.397217,203.959534 164.668686,205.371475 168.857666,205.782227 
	C175.229218,206.406967 179.933258,203.175293 182.850266,197.387024 
	C183.802200,195.498062 184.521286,192.206940 187.831924,195.858383 
	C187.660217,198.253738 187.212875,200.448563 186.061310,202.835632 
	C183.238022,204.350708 181.118942,205.673523 178.999863,206.996338 
	C174.609451,207.654007 170.219055,208.311661 165.375824,208.702545 
	C164.282516,208.289658 163.642059,208.143539 163.001602,207.997406 
	C158.527069,205.778885 154.008926,203.643036 149.593079,201.313293 
	C146.557205,199.711609 143.663254,197.840912 140.137207,195.781586 
	C138.311676,194.959122 137.054794,194.445526 135.936615,193.673141 
	C136.671143,192.926559 137.267014,192.438736 137.862869,191.950928 
z"/>
<path fill="#E8E8E8" opacity="1.000000" stroke="none" 
	d="
M99.099731,244.415833 
	C106.591316,246.734833 114.266022,247.665054 122.082436,246.902023 
	C124.007912,246.714081 125.821388,245.378845 127.868126,244.234741 
	C130.302826,246.041290 132.555756,248.184097 134.818832,250.663513 
	C123.244919,250.994400 111.660866,250.988663 99.619217,250.985229 
	C99.112495,248.940201 99.063377,246.892899 99.099731,244.415833 
z"/>
<path fill="#E49B5C" opacity="1.000000" stroke="none" 
	d="
M131.988434,164.978928 
	C132.735031,164.356033 133.481628,163.733139 134.531998,163.085876 
	C135.052475,163.360397 135.269196,163.659302 135.576569,164.401703 
	C134.978210,169.222092 134.289169,173.598969 133.265167,177.994293 
	C132.307083,178.208084 131.479996,178.212204 131.090927,178.627075 
	C123.249428,186.988708 113.002151,189.670822 102.098541,190.618835 
	C101.964020,189.491898 101.896027,188.737961 101.931076,187.902924 
	C102.034111,187.821823 102.202492,187.620773 102.646767,187.700775 
	C105.212875,187.489777 107.429718,187.497925 109.441071,186.859085 
	C122.227554,182.797913 131.003601,177.580231 131.988434,164.978928 
z"/>
<path fill="#BFD1E1" opacity="1.000000" stroke="none" 
	d="
M150.905731,179.354858 
	C147.676834,182.306381 144.642624,185.002289 140.917496,187.839996 
	C137.861053,187.649323 135.495544,187.316864 133.098221,186.640778 
	C133.250137,185.207031 133.433853,184.116882 133.954071,182.914642 
	C137.552704,179.492233 140.814819,176.181915 144.076935,172.871582 
	C147.528625,171.975510 151.423431,175.429001 150.905731,179.354858 
z"/>
<path fill="#F7F7F7" opacity="1.000000" stroke="none" 
	d="
M69.817703,239.090347 
	C77.063606,238.924957 84.061386,238.983322 91.471855,239.453293 
	C90.386002,241.482651 89.177864,243.920227 87.337227,244.572189 
	C80.409874,247.025955 73.441620,246.964096 66.904839,242.969482 
	C67.793091,241.751022 68.681335,240.532562 69.817703,239.090347 
z"/>
<path fill="#494D54" opacity="1.000000" stroke="none" 
	d="
M153.351166,96.920822 
	C152.930008,88.540405 151.745743,87.140442 142.693604,84.952667 
	C140.608353,84.448685 138.522141,83.948685 136.166000,83.163391 
	C138.259445,81.114380 140.474579,79.086555 143.020905,77.642914 
	C147.147842,75.303146 154.786453,80.181053 154.896103,85.413795 
	C154.974472,89.153191 154.107239,92.912392 153.351166,96.920822 
z"/>
<path fill="#A96D51" opacity="1.000000" stroke="none" 
	d="
M153.825394,140.985519 
	C155.078629,148.897766 151.499222,154.259689 144.276245,158.102997 
	C143.416016,158.349792 143.193115,158.563339 143.037277,158.846878 
	C142.580368,158.896652 142.123444,158.946411 141.253830,158.598694 
	C139.883408,156.162750 138.925690,154.124283 138.361969,152.059525 
	C145.163773,151.011902 146.766754,149.073029 147.454788,141.967758 
	C149.832855,141.636597 151.829117,141.311066 153.825394,140.985519 
z"/>
<path fill="#A96D51" opacity="1.000000" stroke="none" 
	d="
M59.946442,150.145935 
	C52.480297,148.408020 47.988541,142.262756 48.410141,133.325348 
	C50.860069,132.547516 52.910408,132.260544 54.974777,132.392944 
	C55.131645,139.640717 56.756260,141.911880 62.967888,144.337692 
	C61.959942,146.519913 60.953194,148.332932 59.946442,150.145935 
z"/>
<path fill="#BFD1E1" opacity="1.000000" stroke="none" 
	d="
M50.938839,183.032074 
	C48.920418,180.010284 46.901997,176.988510 44.566826,173.836227 
	C44.728088,169.521652 49.296162,166.680908 52.592552,169.176331 
	C55.012630,173.131271 57.101288,176.633774 59.227043,180.313995 
	C59.264137,180.491699 59.234043,180.856216 59.086876,181.235779 
	C56.272755,182.087570 53.605797,182.559830 50.938839,183.032074 
z"/>
<path fill="#E4E4E5" opacity="1.000000" stroke="none" 
	d="
M94.830719,245.991074 
	C94.882111,247.381241 94.933502,248.771408 94.914719,250.576416 
	C83.256119,250.992966 71.667686,250.994659 59.622032,251.000092 
	C60.538227,249.395691 61.911652,247.787537 63.946449,246.230072 
	C66.977837,246.854141 69.377083,248.010971 71.712524,247.894028 
	C79.431000,247.507507 87.126434,246.661011 94.830719,245.991074 
z"/>
<path fill="#E4F0F8" opacity="1.000000" stroke="none" 
	d="
M143.926727,172.553894 
	C140.814819,176.181915 137.552704,179.492233 133.977554,182.488922 
	C133.643066,180.775467 133.621613,179.375671 133.600143,177.975861 
	C134.289169,173.598969 134.978210,169.222092 135.837021,164.509705 
	C138.596710,166.861542 141.186615,169.548874 143.926727,172.553894 
z"/>
<path fill="#6567BA" opacity="1.000000" stroke="none" 
	d="
M75.009552,228.946198 
	C73.661346,228.962296 72.313133,228.978378 70.560814,228.987030 
	C68.776787,224.284698 67.396873,219.589798 66.323318,214.442581 
	C67.440742,213.719757 68.251808,213.449234 69.478287,213.192825 
	C71.278709,213.188171 72.663734,213.169403 74.037651,213.568054 
	C74.354218,218.972382 74.681885,223.959305 75.009552,228.946198 
z"/>
<path fill="#6567BA" opacity="1.000000" stroke="none" 
	d="
M123.911415,228.563675 
	C122.491592,228.976212 121.139946,228.972702 119.327240,228.557327 
	C118.894562,223.145676 118.922935,218.145889 119.365288,213.097656 
	C121.164665,213.095856 122.550056,213.142487 124.155174,213.381653 
	C124.929443,213.754837 125.483994,213.935501 126.038544,214.116180 
	C125.352226,218.793335 124.665909,223.470474 123.911415,228.563675 
z"/>
<path fill="#DF985C" opacity="1.000000" stroke="none" 
	d="
M62.140160,202.979202 
	C61.770519,201.259430 61.400879,199.539658 61.033714,197.029358 
	C60.761536,194.138657 60.486885,192.038467 60.206966,189.545227 
	C60.194008,188.105392 60.186321,187.058624 60.535477,186.018433 
	C62.334644,187.173813 64.515320,188.041458 65.080040,189.524445 
	C66.735886,193.872833 67.748878,198.466019 68.634972,202.977020 
	C67.498497,203.006149 66.740715,203.021545 65.598633,203.031555 
	C64.189606,203.010513 63.164879,202.994858 62.140160,202.979202 
z"/>
<path fill="#EFEFEF" opacity="1.000000" stroke="none" 
	d="
M94.902733,245.563156 
	C87.126434,246.661011 79.431000,247.507507 71.712524,247.894028 
	C69.377083,248.010971 66.977837,246.854141 64.250725,246.118652 
	C64.698982,245.023727 65.504333,244.090942 66.607254,243.063812 
	C73.441620,246.964096 80.409874,247.025955 87.337227,244.572189 
	C89.177864,243.920227 90.386002,241.482651 91.935730,239.516968 
	C92.703705,239.115326 93.420494,239.061615 94.497086,239.031326 
	C94.896172,241.081573 94.935463,243.108414 94.902733,245.563156 
z"/>
<path fill="#BD7958" opacity="1.000000" stroke="none" 
	d="
M54.960743,131.973587 
	C52.910408,132.260544 50.860069,132.547516 48.486343,132.904968 
	C48.516808,125.515091 53.003880,121.116638 59.599556,117.989517 
	C59.992249,120.343231 60.029655,122.724472 59.712143,125.690506 
	C57.891727,128.174713 56.426235,130.074158 54.960743,131.973587 
z"/>
<path fill="#DF985C" opacity="1.000000" stroke="none" 
	d="
M132.084152,198.139877 
	C131.707611,199.823593 131.331070,201.507309 130.584045,203.420227 
	C129.147888,203.444580 128.082199,203.239716 126.613602,203.021927 
	C125.136665,202.995331 124.062653,202.981644 123.040352,202.609283 
	C124.235184,199.507050 125.012138,196.517975 126.635681,194.096542 
	C127.967201,192.110672 130.305939,190.800095 132.223602,189.628784 
	C132.162918,192.446426 132.076828,194.825485 131.998718,197.439911 
	C132.006714,197.675278 132.084152,198.139877 132.084152,198.139877 
z"/>
<path fill="#B67454" opacity="1.000000" stroke="none" 
	d="
M153.884857,140.603424 
	C151.829117,141.311066 149.832855,141.636597 147.434769,141.595245 
	C146.043747,139.155548 145.054550,137.082733 144.065353,135.009918 
	C144.794037,132.780472 145.522720,130.551010 146.581451,128.208801 
	C149.255798,132.137787 151.600067,136.179550 153.884857,140.603424 
z"/>
<path fill="#A96D51" opacity="1.000000" stroke="none" 
	d="
M31.849030,175.574875 
	C30.012074,176.263519 28.001215,176.753372 25.961420,176.967239 
	C21.908001,177.392181 17.838648,177.665131 13.334078,177.990112 
	C14.714702,173.001526 19.650608,171.292297 26.731255,173.302734 
	C28.422892,173.783051 30.020943,174.592957 31.849030,175.574875 
z"/>
<path fill="#454344" opacity="1.000000" stroke="none" 
	d="
M60.082035,83.452850 
	C60.129112,82.984932 60.571510,82.997719 60.792923,83.001633 
	C61.342484,84.911148 61.927315,86.813171 61.953854,88.722969 
	C62.062508,96.541008 62.061085,104.362267 61.950085,112.180214 
	C61.928387,113.708443 61.238605,115.227196 60.481552,116.864792 
	C60.082413,105.959763 60.058685,94.940269 60.082035,83.452850 
z"/>
<path fill="#E4F0F8" opacity="1.000000" stroke="none" 
	d="
M59.189941,180.136292 
	C57.101288,176.633774 55.012630,173.131271 52.919594,169.244003 
	C54.709011,166.974167 56.502811,165.089081 58.596420,163.083771 
	C58.970570,163.720596 59.044918,164.477646 59.084595,166.074448 
	C59.096592,171.321548 59.143269,175.728928 59.189941,180.136292 
z"/>
<path fill="#51555C" opacity="1.000000" stroke="none" 
	d="
M97.787918,68.565186 
	C96.714340,69.243263 95.348587,69.897758 93.956833,69.958748 
	C84.551277,70.370918 75.140228,70.657501 65.283867,70.969269 
	C67.654610,69.973022 70.444023,68.261414 73.295662,68.150566 
	C81.344673,67.837700 89.419228,68.181808 97.787918,68.565186 
z"/>
<path fill="#BF7F4A" opacity="1.000000" stroke="none" 
	d="
M127.016518,203.034851 
	C128.082199,203.239716 129.147888,203.444580 130.511169,203.792831 
	C130.519440,206.815079 130.407883,209.731659 129.810654,212.545166 
	C129.668640,213.214188 127.901413,213.538239 126.460144,214.068573 
	C125.483994,213.935501 124.929443,213.754837 124.182396,212.983002 
	C124.998772,209.272827 126.007645,206.153839 127.016518,203.034851 
z"/>
<path fill="#B67454" opacity="1.000000" stroke="none" 
	d="
M137.967972,152.085800 
	C138.925690,154.124283 139.883408,156.162750 140.913544,158.534607 
	C139.633621,158.918350 138.281281,158.968719 136.522827,159.035004 
	C130.467468,157.040970 131.642563,153.297073 133.946823,149.093628 
	C134.932434,148.878357 135.621002,148.911194 136.662964,149.320175 
	C137.333588,150.492828 137.650772,151.289307 137.967972,152.085800 
z"/>
<path fill="#A86D52" opacity="1.000000" stroke="none" 
	d="
M132.433716,198.114929 
	C132.084152,198.139877 132.006714,197.675278 132.296326,197.313492 
	C133.656586,195.945114 134.727264,194.938522 135.797928,193.931915 
	C137.054794,194.445526 138.311676,194.959122 139.783722,195.736969 
	C137.868713,199.407532 140.383102,201.010498 142.592041,202.771576 
	C144.057465,203.939896 145.456055,205.192047 146.907211,206.764633 
	C142.214340,204.111710 137.498810,201.100830 132.433716,198.114929 
z"/>
<path fill="#BF7F4A" opacity="1.000000" stroke="none" 
	d="
M62.070663,203.386627 
	C63.164879,202.994858 64.189606,203.010513 65.653488,203.393707 
	C67.082733,206.900406 68.072807,210.039566 69.062874,213.178726 
	C68.251808,213.449234 67.440742,213.719757 66.307648,214.059479 
	C65.001900,212.881454 63.617855,211.772156 63.129311,210.354294 
	C62.415890,208.283798 62.345600,205.991699 62.070663,203.386627 
z"/>
<path fill="#B67454" opacity="1.000000" stroke="none" 
	d="
M60.120087,150.426224 
	C60.953194,148.332932 61.959942,146.519913 62.978638,143.966736 
	C63.015533,142.242294 63.040485,141.258057 63.065437,140.273804 
	C63.824924,140.306885 64.584412,140.339966 65.702118,140.512527 
	C66.370789,142.766495 67.180542,144.969391 66.826889,146.966263 
	C66.564438,148.448166 64.791595,149.662567 63.289482,151.018097 
	C62.022858,150.928864 61.158298,150.817688 60.120087,150.426224 
z"/>
<path fill="#A3694D" opacity="1.000000" stroke="none" 
	d="
M178.005615,186.039703 
	C174.300674,185.690048 170.595749,185.340408 166.294235,184.768890 
	C165.727188,184.036072 165.557007,183.263107 165.822037,183.061066 
	C166.789948,182.323181 167.903030,181.775696 168.961426,181.156494 
	C170.377121,181.110397 171.792801,181.064301 173.833557,181.294952 
	C175.018921,181.698944 175.579208,181.826187 176.139511,181.953430 
	C176.470444,181.988037 176.725555,182.145462 176.991730,182.980515 
	C177.387604,184.370102 177.696609,185.204895 178.005615,186.039703 
z"/>
<path fill="#AEBBC6" opacity="1.000000" stroke="none" 
	d="
M60.212234,189.938278 
	C60.486885,192.038467 60.761536,194.138657 60.982616,196.650024 
	C59.669804,196.569168 58.410557,196.077103 57.005600,195.285126 
	C55.986145,193.156250 55.112400,191.327286 54.016380,189.226685 
	C53.794106,188.955048 54.073738,189.000610 54.575542,189.011932 
	C56.788975,189.328247 58.500607,189.633255 60.212234,189.938278 
z"/>
<path fill="#A86D52" opacity="1.000000" stroke="none" 
	d="
M179.369537,207.011292 
	C181.118942,205.673523 183.238022,204.350708 185.749710,203.040985 
	C184.651260,206.302841 183.160202,209.551590 181.355865,212.961792 
	C179.881653,211.246201 184.315964,208.173080 179.369537,207.011292 
z"/>
<path fill="#51555C" opacity="1.000000" stroke="none" 
	d="
M123.810989,71.577034 
	C119.805443,71.527260 115.521187,71.189384 111.131226,70.486481 
	C115.194435,70.510612 119.363358,70.899765 123.810989,71.577034 
z"/>
<path fill="#AE6F51" opacity="1.000000" stroke="none" 
	d="
M168.573532,181.096512 
	C167.903030,181.775696 166.789948,182.323181 165.822037,183.061066 
	C165.557007,183.263107 165.727188,184.036072 165.850800,184.765625 
	C163.922470,184.979324 161.841019,184.974426 159.312500,184.954315 
	C161.972168,183.638260 165.078903,182.337387 168.573532,181.096512 
z"/>
<path fill="#A86D52" opacity="1.000000" stroke="none" 
	d="
M167.185669,216.427490 
	C169.463257,215.917572 171.978851,215.728745 174.773895,215.820557 
	C172.510117,216.316971 169.966904,216.532761 167.185669,216.427490 
z"/>
<path fill="#A86D52" opacity="1.000000" stroke="none" 
	d="
M157.040192,213.368774 
	C159.496582,213.753571 162.145508,214.453934 164.893158,215.499237 
	C162.405502,215.124237 159.819107,214.404297 157.040192,213.368774 
z"/>
<path fill="#51555C" opacity="1.000000" stroke="none" 
	d="
M108.818573,69.584656 
	C107.127487,69.852829 105.168091,69.835930 103.117249,69.472046 
	C104.867287,69.183243 106.708778,69.241409 108.818573,69.584656 
z"/>
<path fill="#A86D52" opacity="1.000000" stroke="none" 
	d="
M147.934860,208.431793 
	C149.203964,208.856750 150.530746,209.641800 151.894562,210.775421 
	C150.618576,210.346634 149.305573,209.569260 147.934860,208.431793 
z"/>
<path fill="#51555C" opacity="1.000000" stroke="none" 
	d="
M130.036285,74.595085 
	C128.782654,74.227280 127.467003,73.503860 126.088135,72.455643 
	C127.341377,72.833717 128.657822,73.536591 130.036285,74.595085 
z"/>
<path fill="#51555C" opacity="1.000000" stroke="none" 
	d="
M132.040909,78.625885 
	C131.404007,77.865700 130.711639,76.774422 130.034515,75.300064 
	C130.695007,76.042915 131.340210,77.168861 132.040909,78.625885 
z"/>
<path fill="#A86D52" opacity="1.000000" stroke="none" 
	d="
M152.055878,211.372894 
	C153.196320,211.436386 154.499313,211.800964 155.897354,212.506897 
	C154.734406,212.456818 153.476425,212.065399 152.055878,211.372894 
z"/>
<path fill="#51555C" opacity="1.000000" stroke="none" 
	d="
M132.186523,82.252289 
	C131.993744,81.243729 132.004318,80.468719 132.031769,79.305984 
	C132.696121,80.051796 133.343567,81.185318 134.072250,82.647034 
	C133.565613,82.812096 132.977737,82.648972 132.186523,82.252289 
z"/>
<path fill="#AE6F51" opacity="1.000000" stroke="none" 
	d="
M178.114197,186.184082 
	C177.696609,185.204895 177.387604,184.370102 177.061096,183.201111 
	C177.690125,183.670197 178.336655,184.473465 179.005280,185.601837 
	C178.759186,186.060791 178.490982,186.194641 178.114197,186.184082 
z"/>
<path fill="#ECA060" opacity="1.000000" stroke="none" 
	d="
M59.701542,160.114685 
	C59.901794,160.613800 59.833656,161.247452 59.501743,161.934204 
	C59.303028,161.407928 59.368088,160.828583 59.701542,160.114685 
z"/>
<path fill="#AE6F51" opacity="1.000000" stroke="none" 
	d="
M175.988297,181.678223 
	C175.579208,181.826187 175.018921,181.698944 174.253906,181.363770 
	C174.645157,181.238220 175.241119,181.320618 175.988297,181.678223 
z"/>
<path fill="#A86D52" opacity="1.000000" stroke="none" 
	d="
M146.975815,207.293854 
	C147.166718,207.239319 147.448349,207.441116 147.847214,207.879272 
	C147.665146,207.927155 147.365845,207.738663 146.975815,207.293854 
z"/>
<path fill="#51555C" opacity="1.000000" stroke="none" 
	d="
M63.714035,71.128159 
	C63.834568,71.393639 63.629173,71.625031 63.128044,71.878273 
	C63.095463,71.700569 63.280727,71.431885 63.714035,71.128159 
z"/>
<path fill="#51555C" opacity="1.000000" stroke="none" 
	d="
M62.726662,72.009834 
	C62.773689,72.189156 62.573814,72.466354 62.141983,72.861053 
	C62.099941,72.688263 62.289852,72.397987 62.726662,72.009834 
z"/>
<path fill="#51555C" opacity="1.000000" stroke="none" 
	d="
M61.751682,73.012093 
	C61.887718,73.214577 61.732094,73.476761 61.313438,73.822868 
	C61.091557,73.588997 61.228096,73.310661 61.751682,73.012093 
z"/>
<path fill="#51555C" opacity="1.000000" stroke="none" 
	d="
M60.758419,74.961349 
	C60.896980,75.152740 60.747505,75.431534 60.326210,75.806038 
	C60.107563,75.579506 60.246227,75.295166 60.758419,74.961349 
z"/>
<path fill="#B67454" opacity="1.000000" stroke="none" 
	d="
M143.293427,158.847809 
	C143.193115,158.563339 143.416016,158.349792 143.925232,158.122940 
	C143.946182,158.309341 143.747879,158.579041 143.293427,158.847809 
z"/>
<path fill="#A86D52" opacity="1.000000" stroke="none" 
	d="
M177.288422,215.874390 
	C177.181168,215.576965 177.406754,215.356110 177.926636,215.123932 
	C177.952255,215.321777 177.752365,215.601242 177.288422,215.874390 
z"/>
<path fill="#A86D52" opacity="1.000000" stroke="none" 
	d="
M179.288605,214.871429 
	C179.182281,214.575424 179.407547,214.355255 179.925995,214.123291 
	C179.951279,214.320236 179.751602,214.598816 179.288605,214.871429 
z"/>
<path fill="#B47254" opacity="1.000000" stroke="none" 
	d="
M6.137354,197.292450 
	C6.424929,197.183044 6.643817,197.402252 6.878618,197.910919 
	C6.689728,197.936905 6.414440,197.743790 6.137354,197.292450 
z"/>
<path fill="#6467BE" opacity="1.000000" stroke="none" 
	d="
M93.922150,228.578476 
	C92.172310,228.979111 90.500488,228.978165 88.413193,228.523758 
	C88.996155,222.333344 89.994598,216.596390 91.454414,210.820221 
	C95.888344,210.735168 99.860909,210.689331 103.895317,210.950592 
	C103.986725,211.464447 104.016281,211.671173 104.044159,212.284973 
	C104.700409,218.107925 105.358330,223.523849 106.016251,228.939758 
	C104.341293,228.957520 102.666336,228.975281 100.573624,228.986481 
	C99.769653,227.249985 99.603043,225.427414 98.925179,223.820480 
	C98.416359,222.614304 97.250366,221.685333 95.788956,219.924500 
	C94.958191,223.757156 94.479179,225.967026 93.922150,228.578476 
z"/>
<path fill="#E8E8E8" opacity="1.000000" stroke="none" 
	d="
M99.790054,239.099365 
	C99.889709,239.414764 99.729210,239.621902 99.349327,239.892426 
	C99.179581,239.994278 99.020813,239.525467 99.078506,239.284286 
	C99.136192,239.043106 99.579544,239.029556 99.790054,239.099365 
z"/>
<path fill="#9F5C3E" opacity="1.000000" stroke="none" 
	d="
M138.361969,152.059525 
	C137.650772,151.289307 137.333588,150.492828 137.006363,149.360443 
	C138.663727,147.007523 140.703766,145.185455 141.890656,142.917023 
	C143.012222,140.773376 143.237228,138.160629 143.960968,135.382080 
	C145.054550,137.082733 146.043747,139.155548 147.052979,141.600876 
	C146.766754,149.073029 145.163773,151.011902 138.361969,152.059525 
z"/>
<path fill="#9F5C3E" opacity="1.000000" stroke="none" 
	d="
M62.766426,140.025848 
	C63.040485,141.258057 63.015533,142.242294 62.979836,143.597504 
	C56.756260,141.911880 55.131645,139.640717 54.974777,132.392944 
	C56.426235,130.074158 57.891727,128.174713 59.665398,126.134033 
	C60.835602,130.582260 58.302643,135.785919 62.766426,140.025848 
z"/>
<path fill="#404041" opacity="1.000000" stroke="none" 
	d="
M106.091270,143.857025 
	C109.579628,146.231277 113.582146,148.121964 116.404381,151.122711 
	C118.965538,153.845871 117.494949,156.546066 113.862732,155.978851 
	C104.504646,154.517502 95.135941,153.490494 85.682259,153.017944 
	C84.463341,152.957001 82.391891,151.744965 82.323662,150.931290 
	C82.207283,149.543365 82.989380,147.250397 84.058884,146.745270 
	C87.542831,145.099762 91.327499,144.090958 95.825806,142.906738 
	C99.800529,143.269897 102.945900,143.563461 106.091270,143.857025 
z"/>
<path fill="#454344" opacity="1.000000" stroke="none" 
	d="
M111.999519,138.789795 
	C111.999519,135.555298 111.999519,132.320786 111.999519,129.807632 
	C111.140434,127.718910 109.477577,125.563210 110.007248,124.464348 
	C110.607979,123.218063 113.162033,122.352325 114.884842,122.321373 
	C118.816917,122.250717 122.759529,123.013252 126.698685,123.021072 
	C130.855286,123.029327 132.047668,124.664337 130.435181,128.851730 
	C128.943527,128.922623 127.346420,128.998505 124.893341,129.037216 
	C121.955574,129.000031 119.873772,129.000031 116.927208,129.000031 
	C121.206696,131.212204 122.209549,134.308655 120.559807,137.572174 
	C118.546776,141.554337 115.127945,140.194839 111.999519,138.789795 
z"/>
<path fill="#814B32" opacity="1.000000" stroke="none" 
	d="
M84.000229,164.007446 
	C93.076462,165.015152 102.152702,166.022842 111.469444,167.329956 
	C107.135330,170.447586 102.560699,173.265778 97.658829,176.084747 
	C96.895065,176.077972 96.458549,176.070419 95.845612,175.767471 
	C91.747383,173.056335 87.825577,170.640579 83.925926,167.803406 
	C83.965462,166.257126 83.982849,165.132294 84.000229,164.007446 
z"/>
<path fill="#A5B6C3" opacity="1.000000" stroke="none" 
	d="
M87.659241,182.093445 
	C87.659241,182.093445 87.319191,182.087204 86.996666,181.770782 
	C82.430199,178.372543 78.186264,175.290710 73.958252,171.747101 
	C73.980598,168.540588 73.987015,165.795883 73.993431,163.051163 
	C74.164398,163.046127 74.335358,163.041092 74.901306,163.266617 
	C75.533119,163.733276 75.814476,163.888885 76.409637,164.136169 
	C78.108231,165.257492 79.537552,166.206650 80.984886,167.515717 
	C82.852768,170.177368 84.346382,172.968689 86.650909,174.645599 
	C89.040100,176.384125 92.214943,177.042923 95.037140,178.518555 
	C94.666580,180.194687 94.305046,181.526215 93.546432,182.896591 
	C91.319313,182.654770 89.489281,182.374100 87.659241,182.093445 
z"/>
<path fill="#DD965A" opacity="1.000000" stroke="none" 
	d="
M131.705811,165.128326 
	C131.003601,177.580231 122.227554,182.797913 109.441071,186.859085 
	C107.429718,187.497925 105.212875,187.489777 102.696030,187.355011 
	C102.982185,186.008484 103.663361,185.087753 104.617020,184.095032 
	C105.556168,183.669846 106.222832,183.316681 107.291580,182.972137 
	C115.895676,181.874588 123.609535,176.122620 125.246391,169.899933 
	C126.024376,169.138290 126.555519,168.553116 127.086655,167.967941 
	C128.532166,167.071213 129.977692,166.174469 131.705811,165.128326 
z"/>
<path fill="#454344" opacity="1.000000" stroke="none" 
	d="
M79.970169,123.994423 
	C76.311287,123.351486 74.775612,121.541359 76.762939,117.412056 
	C83.562256,118.523399 90.436127,119.646927 97.278152,120.765251 
	C97.796944,125.375168 96.107933,126.778091 91.633408,125.560410 
	C90.355927,125.639397 89.681374,125.820152 88.869385,125.635880 
	C85.811348,124.845367 82.890755,124.419891 79.970169,123.994423 
z"/>
<path fill="#A5B6C3" opacity="1.000000" stroke="none" 
	d="
M126.622185,167.956970 
	C126.555519,168.553116 126.024376,169.138290 124.916664,169.997101 
	C119.353394,173.524521 114.366699,176.778305 109.089294,180.111877 
	C108.533684,180.477402 108.268784,180.763138 108.009010,181.021713 
	C108.014137,180.994553 108.053894,181.032974 107.695328,181.005829 
	C105.890923,181.642365 104.445076,182.306046 102.664284,182.988007 
	C101.882301,183.014908 101.435272,183.023529 100.838646,182.721741 
	C100.093193,180.963058 99.497330,179.514816 99.302567,178.037704 
	C106.396568,176.629654 113.152580,175.352020 116.042587,167.854050 
	C119.414299,167.884705 122.786003,167.915359 126.622185,167.956970 
z"/>
<path fill="#F7F7F7" opacity="1.000000" stroke="none" 
	d="
M79.810272,124.315590 
	C82.890755,124.419891 85.811348,124.845367 88.487167,125.727783 
	C85.009079,125.911232 82.447418,127.133156 82.173515,130.457947 
	C82.023476,132.279266 83.150253,135.661972 84.119202,135.822815 
	C86.283043,136.181976 88.710327,134.967453 91.026505,134.379150 
	C91.334709,134.300873 91.620972,134.136185 91.917397,134.011505 
	C90.664879,138.497070 86.410286,141.063858 82.364342,139.774841 
	C78.199730,138.448013 75.650871,132.407913 77.469223,127.863564 
	C77.940544,126.685638 78.909821,125.706955 79.810272,124.315590 
z"/>
<path fill="#F7F7F7" opacity="1.000000" stroke="none" 
	d="
M111.729187,138.963806 
	C115.127945,140.194839 118.546776,141.554337 120.559807,137.572174 
	C122.209549,134.308655 121.206696,131.212204 116.927208,129.000031 
	C119.873772,129.000031 121.955574,129.000031 124.449417,129.083115 
	C125.422745,131.961884 127.207230,135.324631 126.239723,137.411575 
	C124.993729,140.099243 121.846329,142.616852 118.960976,143.645370 
	C115.670067,144.818451 112.830956,142.566360 111.729187,138.963806 
z"/>
<path fill="#955536" opacity="1.000000" stroke="none" 
	d="
M106.244507,143.552887 
	C102.945900,143.563461 99.800529,143.269897 96.240295,142.861969 
	C96.204948,140.401199 96.498787,136.052750 96.977867,136.032257 
	C100.167000,135.895737 103.495468,136.394363 106.521614,137.434448 
	C107.080437,137.626511 106.469025,141.223404 106.244507,143.552887 
z"/>
<path fill="#46484B" opacity="1.000000" stroke="none" 
	d="
M91.957733,133.548401 
	C91.620972,134.136185 91.334709,134.300873 91.026505,134.379150 
	C88.710327,134.967453 86.283043,136.181976 84.119202,135.822815 
	C83.150253,135.661972 82.023476,132.279266 82.173515,130.457947 
	C82.447418,127.133156 85.009079,125.911232 88.624619,126.092819 
	C89.681374,125.820152 90.355927,125.639397 91.201691,125.428711 
	C91.581291,127.960953 91.789680,130.523132 91.957733,133.548401 
z"/>
<path fill="#9BAAB7" opacity="1.000000" stroke="none" 
	d="
M115.774536,167.639557 
	C113.152580,175.352020 106.396568,176.629654 99.084732,177.851624 
	C98.305878,177.157578 98.145973,176.620773 97.986069,176.083969 
	C102.560699,173.265778 107.135330,170.447586 111.903809,167.349335 
	C113.233940,167.187851 114.370209,167.306458 115.774536,167.639557 
z"/>
<path fill="#AEBBC6" opacity="1.000000" stroke="none" 
	d="
M73.697678,162.893051 
	C73.987015,165.795883 73.980598,168.540588 73.628586,171.658417 
	C71.522690,171.112289 69.762398,170.193069 68.002106,169.273849 
	C68.654579,167.105240 69.307053,164.936646 70.059196,162.442078 
	C71.239883,162.322388 72.320908,162.528656 73.697678,162.893051 
z"/>
<path fill="#955536" opacity="1.000000" stroke="none" 
	d="
M80.966866,167.155807 
	C79.537552,166.206650 78.108231,165.257492 76.403641,163.902618 
	C76.128372,163.496887 76.094421,163.030853 76.094421,163.030853 
	C78.465736,163.331284 80.837059,163.631699 83.604309,163.969788 
	C83.982849,165.132294 83.965462,166.257126 83.620209,167.729218 
	C82.517181,167.769562 81.742027,167.462692 80.966866,167.155807 
z"/>
<path fill="#AEBBC6" opacity="1.000000" stroke="none" 
	d="
M75.823212,163.025269 
	C76.094421,163.030853 76.128372,163.496887 76.134369,163.730438 
	C75.814476,163.888885 75.533119,163.733276 75.155869,163.298569 
	C75.194305,163.073196 75.373154,163.046432 75.823212,163.025269 
z"/>
<path fill="#B5C3CF" opacity="1.000000" stroke="none" 
	d="
M60.206966,189.545227 
	C58.500607,189.633255 56.788975,189.328247 54.713173,189.045486 
	C53.336365,187.556732 52.323738,186.045731 51.095528,184.276932 
	C50.879948,184.019135 50.920479,183.526169 50.929657,183.279114 
	C53.605797,182.559830 56.272755,182.087570 59.269615,181.559158 
	C59.792553,183.005936 59.985592,184.508896 60.178631,186.011841 
	C60.186321,187.058624 60.194008,188.105392 60.206966,189.545227 
z"/>
<path fill="#B5C3CF" opacity="1.000000" stroke="none" 
	d="
M135.936615,193.673141 
	C134.727264,194.938522 133.656586,195.945114 132.288330,197.078125 
	C132.076828,194.825485 132.162918,192.446426 132.202820,189.586761 
	C132.156631,189.106155 132.065231,189.091049 132.278534,189.010834 
	C132.690399,188.680283 132.775970,188.395966 132.846161,187.805130 
	C133.005829,187.349854 133.067932,187.167114 133.130020,186.984390 
	C135.495544,187.316864 137.861053,187.649323 140.625839,187.997192 
	C141.025101,188.012604 140.944077,188.481888 140.896210,188.715088 
	C139.948563,189.766846 139.048752,190.585388 138.005905,191.677429 
	C137.267014,192.438736 136.671143,192.926559 135.936615,193.673141 
z"/>
<path fill="#A86D52" opacity="1.000000" stroke="none" 
	d="
M163.182037,208.228302 
	C163.642059,208.143539 164.282516,208.289658 164.961700,208.715759 
	C164.454422,208.816879 163.908432,208.638046 163.182037,208.228302 
z"/>
<path fill="#696CC5" opacity="1.000000" stroke="none" 
	d="
M106.477524,228.957001 
	C105.358330,223.523849 104.700409,218.107925 104.492355,212.328247 
	C107.949379,211.979355 110.956535,211.994217 114.063522,212.130249 
	C114.163345,212.251419 114.447205,212.371353 114.447205,212.371353 
	C114.447205,212.371353 114.716293,212.222000 115.131882,212.373749 
	C116.716194,212.620972 117.884911,212.716446 119.021309,212.893402 
	C118.988983,212.974869 118.951309,213.146103 118.951309,213.146103 
	C118.922935,218.145889 118.894562,223.145676 118.921776,228.540131 
	C114.964516,228.947952 110.951660,228.961105 106.477524,228.957001 
z"/>
<path fill="#6769C3" opacity="1.000000" stroke="none" 
	d="
M90.993042,210.859436 
	C89.994598,216.596390 88.996155,222.333344 87.994797,228.510757 
	C83.972397,228.960449 79.952904,228.969681 75.471481,228.962555 
	C74.681885,223.959305 74.354218,218.972382 74.019356,213.481750 
	C74.012161,212.978043 73.944893,212.815048 74.360123,212.849075 
	C79.570457,212.125626 84.365570,211.368164 89.467346,210.643494 
	C90.180351,210.737350 90.586700,210.798386 90.993042,210.859436 
z"/>
<path fill="#ECA060" opacity="1.000000" stroke="none" 
	d="
M60.535477,186.018433 
	C59.985592,184.508896 59.792553,183.005936 59.416779,181.179596 
	C59.234043,180.856216 59.264137,180.491699 59.227039,180.313995 
	C59.143269,175.728928 59.096592,171.321548 59.125687,166.453979 
	C59.841656,166.654953 60.823139,167.208191 61.071426,167.993286 
	C65.576508,182.238724 76.958771,187.320511 90.643661,190.452698 
	C91.097343,194.269531 91.085854,197.630188 90.929344,201.026016 
	C90.784325,201.061203 90.489296,201.105469 90.032227,201.120972 
	C83.380524,201.765945 77.185890,202.395386 70.661560,203.015198 
	C69.892471,202.991486 69.453072,202.977402 69.013672,202.963318 
	C67.748878,198.466019 66.735886,193.872833 65.080040,189.524445 
	C64.515320,188.041458 62.334644,187.173813 60.535477,186.018433 
z"/>
<path fill="#E4F0F8" opacity="1.000000" stroke="none" 
	d="
M91.074364,200.990829 
	C91.085854,197.630188 91.097343,194.269531 91.045273,190.454758 
	C91.059525,189.565430 91.137344,189.130249 91.720772,188.362518 
	C95.426933,188.014664 98.627480,187.999344 101.828033,187.984024 
	C101.896027,188.737961 101.964020,189.491898 102.039688,191.068573 
	C102.074654,194.905945 102.101936,197.920563 101.661575,200.955917 
	C97.820740,200.981369 94.447548,200.986099 91.074364,200.990829 
z"/>
<path fill="#DA945A" opacity="1.000000" stroke="none" 
	d="
M68.003166,169.638260 
	C69.762398,170.193069 71.522690,171.112289 73.612656,172.120193 
	C78.186264,175.290710 82.430199,178.372543 86.827095,181.757996 
	C86.318230,182.963181 85.550262,184.704819 85.010986,184.636703 
	C79.485176,183.938416 67.535248,176.825882 68.003166,169.638260 
z"/>
<path fill="#D7DFE5" opacity="1.000000" stroke="none" 
	d="
M101.931076,187.902924 
	C98.627480,187.999344 95.426933,188.014664 91.800217,188.040451 
	C90.187813,186.298126 89.001564,184.545334 87.737274,182.442993 
	C89.489281,182.374100 91.319313,182.654770 93.811462,183.182648 
	C96.645119,183.297272 98.816681,183.164703 100.988235,183.032135 
	C101.435272,183.023529 101.882301,183.014908 102.834480,183.242065 
	C103.674599,183.707565 104.009567,183.937286 104.344543,184.167023 
	C103.663361,185.087753 102.982185,186.008484 102.251755,187.274994 
	C102.202492,187.620773 102.034111,187.821823 101.931076,187.902924 
z"/>
<path fill="#ECA060" opacity="1.000000" stroke="none" 
	d="
M102.129219,200.935181 
	C102.101936,197.920563 102.074654,194.905945 102.106216,191.441589 
	C113.002151,189.670822 123.249428,186.988708 131.090927,178.627075 
	C131.479996,178.212204 132.307083,178.208084 133.265182,177.994293 
	C133.621613,179.375671 133.643066,180.775467 133.641052,182.601013 
	C133.433853,184.116882 133.250137,185.207031 133.098221,186.640778 
	C133.067932,187.167114 133.005829,187.349854 132.684952,187.936981 
	C132.236557,188.557892 132.116241,188.807770 132.065231,189.091049 
	C132.065231,189.091049 132.156631,189.106155 132.177414,189.148163 
	C130.305939,190.800095 127.967201,192.110672 126.635681,194.096542 
	C125.012138,196.517975 124.235184,199.507050 122.709641,202.618591 
	C121.885895,202.993439 121.444588,203.000305 120.591469,202.938507 
	C114.422234,202.263290 108.664810,201.656738 102.712936,201.020813 
	C102.518486,200.991409 102.129219,200.935181 102.129219,200.935181 
z"/>
<path fill="#CB8448" opacity="1.000000" stroke="none" 
	d="
M68.634972,202.977020 
	C69.453072,202.977402 69.892471,202.991486 70.713623,203.376511 
	C72.045219,206.769989 72.995056,209.792511 73.944893,212.815048 
	C73.944893,212.815048 74.012161,212.978043 74.030457,213.064331 
	C72.663734,213.169403 71.278709,213.188171 69.478287,213.192825 
	C68.072807,210.039566 67.082733,206.900406 66.037796,203.399094 
	C66.740715,203.021545 67.498497,203.006149 68.634972,202.977020 
z"/>
<path fill="#CB8448" opacity="1.000000" stroke="none" 
	d="
M121.003273,203.007172 
	C121.444588,203.000305 121.885895,202.993439 122.657921,202.977264 
	C124.062653,202.981644 125.136665,202.995331 126.613602,203.021927 
	C126.007645,206.153839 124.998772,209.272827 123.962677,212.790466 
	C122.550056,213.142487 121.164665,213.095856 119.365288,213.097656 
	C118.951309,213.146103 118.988983,212.974869 119.018707,212.515778 
	C119.700035,209.040192 120.351654,206.023697 121.003273,203.007172 
z"/>
<path fill="#D68B4A" opacity="1.000000" stroke="none" 
	d="
M120.591469,202.938507 
	C120.351654,206.023697 119.700035,209.040192 119.051025,212.434311 
	C117.884911,212.716446 116.716194,212.620972 115.012856,212.327606 
	C114.312607,212.064514 114.141090,212.024292 113.963699,212.009094 
	C110.956535,211.994217 107.949379,211.979355 104.494026,211.921204 
	C104.016281,211.671173 103.986725,211.464447 103.912521,210.573303 
	C103.547714,206.942673 103.227547,203.996429 102.907379,201.050201 
	C108.664810,201.656738 114.422234,202.263290 120.591469,202.938507 
z"/>
<path fill="#BFD1E1" opacity="1.000000" stroke="none" 
	d="
M102.712936,201.020813 
	C103.227547,203.996429 103.547714,206.942673 103.850677,210.266205 
	C99.860909,210.689331 95.888344,210.735168 91.454414,210.820221 
	C90.586700,210.798386 90.180351,210.737350 89.456703,210.274933 
	C89.589363,206.950882 90.039330,204.028168 90.489288,201.105469 
	C90.489296,201.105469 90.784325,201.061203 90.929344,201.026016 
	C94.447548,200.986099 97.820740,200.981369 101.661575,200.955917 
	C102.129219,200.935181 102.518486,200.991409 102.712936,201.020813 
z"/>
<path fill="#9BAAB7" opacity="1.000000" stroke="none" 
	d="
M80.984886,167.515717 
	C81.742027,167.462692 82.517181,167.769562 83.598053,168.150635 
	C87.825577,170.640579 91.747383,173.056335 95.831223,176.070160 
	C95.677559,177.170151 95.361862,177.672058 95.046173,178.173965 
	C92.214943,177.042923 89.040100,176.384125 86.650909,174.645599 
	C84.346382,172.968689 82.852768,170.177368 80.984886,167.515717 
z"/>
<path fill="#BFD1E1" opacity="1.000000" stroke="none" 
	d="
M95.037140,178.518555 
	C95.361862,177.672058 95.677559,177.170151 96.007645,176.365555 
	C96.458549,176.070419 96.895065,176.077972 97.658829,176.084747 
	C98.145973,176.620773 98.305878,177.157578 98.683624,177.880463 
	C99.497330,179.514816 100.093193,180.963058 100.838646,182.721725 
	C98.816681,183.164703 96.645119,183.297272 94.208542,183.143799 
	C94.305046,181.526215 94.666580,180.194687 95.037140,178.518555 
z"/>
<path fill="#DA945A" opacity="1.000000" stroke="none" 
	d="
M109.380013,180.032089 
	C114.366699,176.778305 119.353394,173.524521 124.669815,170.173553 
	C123.609535,176.122620 115.895676,181.874588 107.434273,182.725525 
	C107.467896,181.991165 107.760895,181.512070 108.053894,181.032974 
	C108.053894,181.032974 108.014137,180.994553 108.290833,180.936218 
	C108.838356,180.595947 109.109184,180.314026 109.380013,180.032089 
z"/>
<path fill="#BFD1E1" opacity="1.000000" stroke="none" 
	d="
M107.695328,181.005829 
	C107.760895,181.512070 107.467896,181.991165 107.032196,182.716888 
	C106.222832,183.316681 105.556168,183.669846 104.617020,184.095032 
	C104.009567,183.937286 103.674599,183.707565 103.169426,183.223770 
	C104.445076,182.306046 105.890923,181.642365 107.695328,181.005829 
z"/>
<path fill="#BFD1E1" opacity="1.000000" stroke="none" 
	d="
M109.089294,180.111877 
	C109.109184,180.314026 108.838356,180.595947 108.285706,180.963379 
	C108.268784,180.763138 108.533684,180.477402 109.089294,180.111877 
z"/>
<path fill="#DF985C" opacity="1.000000" stroke="none" 
	d="
M132.278534,189.010834 
	C132.116241,188.807770 132.236557,188.557892 132.587372,188.209534 
	C132.775970,188.395966 132.690399,188.680283 132.278534,189.010834 
z"/>
<path fill="#CB8448" opacity="1.000000" stroke="none" 
	d="
M114.063522,212.130249 
	C114.141090,212.024292 114.312607,212.064514 114.597267,212.175873 
	C114.716293,212.222000 114.447205,212.371353 114.447205,212.371353 
	C114.447205,212.371353 114.163345,212.251419 114.063522,212.130249 
z"/>
<path fill="#D68B4A" opacity="1.000000" stroke="none" 
	d="
M90.032227,201.120972 
	C90.039330,204.028168 89.589363,206.950882 89.150040,210.242126 
	C84.365570,211.368164 79.570457,212.125626 74.360123,212.849075 
	C72.995056,209.792511 72.045219,206.769989 71.043320,203.386139 
	C77.185890,202.395386 83.380524,201.765945 90.032227,201.120972 
z"/>
</svg>