<svg version="1.1" id="Layer_1" xmlns="http://www.w3.org/2000/svg" xmlns:xlink="http://www.w3.org/1999/xlink" x="0px" y="0px"
	 width="100%" viewBox="0 0 192 256" enable-background="new 0 0 192 256" xml:space="preserve">
<path fill="#000000" opacity="1.000000" stroke="none" 
	d="
M54.000000,257.000000 
	C36.342331,257.000000 18.684666,257.000000 1.020248,257.000000 
	C1.013499,171.719131 1.013499,86.438271 1.013499,1.078699 
	C64.914848,1.078699 128.829819,1.078699 192.872406,1.078699 
	C192.872406,86.333221 192.872406,171.666580 192.879120,256.999969 
	C159.236343,257.000000 125.586830,257.000000 91.463913,256.669739 
	C90.952309,255.901199 90.914108,255.462875 90.940399,254.707428 
	C91.049339,253.961044 91.093788,253.531815 91.380249,252.892395 
	C90.764900,251.089462 89.907539,249.496719 89.039787,247.937897 
	C89.029396,247.971817 89.096451,247.948578 88.936325,247.646576 
	C86.815941,244.544006 84.855682,241.743439 82.955139,238.522919 
	C84.036774,233.091644 85.058693,228.080307 86.073608,223.049255 
	C86.066597,223.029572 86.046707,223.064545 86.472900,223.040100 
	C90.936600,222.632828 94.974113,222.250015 99.381714,221.790863 
	C101.457649,221.530487 103.163498,221.346436 104.880302,221.454849 
	C104.882164,222.137085 104.873077,222.526855 104.597145,223.131622 
	C103.181190,225.877258 102.032082,228.407883 100.912071,230.957336 
	C100.941170,230.976181 100.949242,230.907333 100.667908,231.117111 
	C99.591637,232.890900 98.914803,234.530228 97.975983,236.002487 
	C96.269478,238.678665 97.223618,240.110626 100.182434,240.934479 
	C100.387444,240.990128 100.810982,241.023605 100.944427,241.237198 
	C101.366936,241.597015 101.655991,241.743225 102.157532,241.942307 
	C102.370026,241.995163 102.807007,242.024033 102.946259,242.230576 
	C103.295921,242.728943 103.580963,242.877991 104.248718,242.943298 
	C104.974754,243.009232 105.392723,243.016144 105.946564,243.233887 
	C106.369682,243.592880 106.656929,243.741074 107.267868,244.064697 
	C111.354111,245.836044 115.116676,247.431961 119.047241,249.279480 
	C119.789291,249.649887 120.363335,249.768677 121.155701,249.944092 
	C121.374023,250.000702 121.823151,250.042633 122.047638,250.315720 
	C124.628212,251.628586 126.984291,252.668365 129.155624,253.626602 
	C132.255951,250.242340 132.465393,246.929977 130.980804,243.206284 
	C129.529678,239.566498 128.407196,235.795670 127.441910,231.832550 
	C127.950790,230.456253 128.282303,229.336609 128.344528,228.202179 
	C128.641220,222.793945 128.864731,217.381683 129.068848,211.570648 
	C128.251785,208.552307 127.957825,205.652466 126.613106,203.372284 
	C123.417465,197.953613 120.152184,192.707932 122.024437,185.753876 
	C123.800026,186.028946 125.390709,186.557220 127.056984,187.296860 
	C127.300774,187.773590 127.535522,187.950836 128.011108,188.336014 
	C131.114136,190.381119 134.042877,192.130173 137.353333,193.937317 
	C138.504669,193.965027 139.274261,193.934631 140.292999,193.849045 
	C140.760452,193.536575 140.978790,193.279297 141.509277,193.024719 
	C142.233688,192.976624 142.645920,192.925827 143.292984,192.824188 
	C143.811920,192.589523 143.994858,192.333405 144.039032,192.003326 
	C144.001404,192.001663 143.998169,192.076904 144.425171,192.049042 
	C149.580643,191.941467 154.309097,191.861740 159.388626,191.834229 
	C160.445770,191.939651 161.151855,191.992874 162.032608,192.388184 
	C163.388657,193.241699 164.552414,193.799332 165.754181,194.257172 
	C174.593506,197.624710 186.127457,191.358185 185.897400,181.586670 
	C183.233124,180.155685 180.502823,179.124435 178.059174,178.201462 
	C175.529922,182.144318 175.231216,186.768509 169.985260,185.550186 
	C170.005920,184.838089 170.026810,184.431381 170.367325,183.780792 
	C171.543900,178.103073 170.938110,173.326813 165.055573,170.666199 
	C165.406693,169.963562 165.725159,169.532089 166.428879,169.057037 
	C168.530960,168.712463 170.247772,168.411484 172.093536,168.427155 
	C174.270126,170.551605 179.797043,169.675323 181.351089,166.725128 
	C181.842926,165.791458 179.923584,163.587677 178.934952,161.625275 
	C174.502243,160.576889 170.242264,159.868393 165.610916,159.094299 
	C158.997757,160.781891 155.419174,164.928955 154.622696,171.112274 
	C153.206390,172.453308 152.081558,173.676392 150.565933,174.956970 
	C149.123138,175.005981 148.071136,174.997498 146.883881,174.667511 
	C143.412628,169.166107 138.121613,169.993698 133.141632,169.509094 
	C133.478958,165.780243 133.800873,162.455185 134.435181,159.083328 
	C135.160172,158.963135 135.572784,158.889755 136.323776,158.757080 
	C144.236938,155.196548 148.085541,149.556335 146.892822,140.615143 
	C145.678375,137.815338 144.400558,135.386230 143.054626,132.713196 
	C142.930054,132.310165 142.873642,132.151047 142.836823,131.736053 
	C142.575653,131.309341 142.294922,131.138504 141.827393,130.670975 
	C139.418167,128.310532 134.543121,129.040161 135.382690,123.875610 
	C136.518799,118.230186 137.315399,112.818527 138.145432,107.179703 
	C136.055008,107.077393 134.593079,107.005844 132.942596,106.586258 
	C132.167679,103.582542 131.493820,100.942497 131.015472,98.267494 
	C130.301697,94.275963 128.678024,91.425064 123.852371,91.629150 
	C111.235352,74.239944 83.186699,72.718704 69.631821,88.104904 
	C64.459999,88.021027 62.425610,90.933250 61.387592,95.153793 
	C60.738586,97.792633 59.712364,100.338699 58.420994,102.953316 
	C56.738033,103.044762 55.489491,103.109291 53.543732,103.209854 
	C54.041153,108.811890 54.498497,113.962624 54.972229,119.513733 
	C54.380474,120.937744 54.006237,122.315140 53.112152,122.906288 
	C51.576313,123.921753 49.716091,124.446602 47.707378,125.181229 
	C47.200146,125.491379 46.977573,125.797699 46.540794,126.158646 
	C46.326588,126.213264 46.119225,126.603745 45.856018,126.777435 
	C44.111504,129.629868 42.630203,132.308624 41.079300,135.435760 
	C40.583820,142.160446 40.848030,148.181351 47.175301,152.337433 
	C50.217636,153.464935 53.068737,154.284454 55.939461,155.395203 
	C55.958717,156.075562 55.958355,156.464691 55.544983,156.899658 
	C48.424435,157.173141 42.747139,159.110962 40.416981,166.207550 
	C39.713249,168.350800 39.397030,170.621307 38.586948,173.025101 
	C27.836370,176.245026 26.118698,178.279755 25.590538,188.088501 
	C24.091017,190.767593 22.583712,193.152145 21.744732,195.752350 
	C20.364077,200.031326 17.212212,204.163269 19.987503,209.411438 
	C19.999355,210.830750 19.971294,211.864441 19.614960,213.060394 
	C18.244066,216.145981 17.201448,219.069290 16.082167,222.390350 
	C16.053085,223.863495 16.100666,224.938889 16.116495,226.280365 
	C16.376713,226.731186 16.668680,226.915939 16.953239,227.067429 
	C16.945829,227.034164 16.895315,227.079926 16.934645,227.403137 
	C17.024700,228.155304 17.075428,228.584290 17.100864,229.284485 
	C17.370981,229.747803 17.666389,229.939896 18.099705,230.446625 
	C21.782280,236.726456 25.515530,238.563507 31.856571,237.414322 
	C31.856571,234.950134 31.856571,232.472153 31.835033,229.648453 
	C29.920023,228.187256 28.026548,227.071762 26.073887,225.644104 
	C26.065676,224.232239 26.116653,223.132538 26.554022,222.047256 
	C29.331766,222.057571 31.723118,222.053452 34.474228,222.029083 
	C36.578140,220.353897 38.322292,218.698975 40.399738,217.028137 
	C41.540146,217.672607 42.347256,218.332962 43.077641,219.364044 
	C43.041565,220.488144 43.082214,221.241516 43.045563,222.368256 
	C39.799892,227.734833 40.367455,229.731796 47.120338,234.655441 
	C48.811180,231.387955 50.430370,228.258926 52.406952,224.927948 
	C52.791042,222.814896 52.817745,220.903778 52.909660,218.616531 
	C51.288654,211.492233 47.493088,207.152939 39.955353,206.643051 
	C39.171360,205.237152 38.510033,204.135254 37.928394,202.677032 
	C38.696587,200.552704 39.385090,198.784698 40.038818,197.048401 
	C40.004040,197.080139 40.067757,197.149475 40.423622,197.084839 
	C42.576344,196.027100 44.373199,195.033966 46.367622,193.955948 
	C46.812611,193.698975 46.971497,193.466431 47.349796,192.967041 
	C48.481945,189.842087 49.306145,186.923492 50.471695,184.019958 
	C51.495342,184.071350 52.177639,184.107666 52.929333,184.506744 
	C55.373329,191.555573 57.747929,198.241653 60.222549,205.324615 
	C60.591629,208.512878 60.860691,211.304214 61.099068,214.336121 
	C61.068378,214.576691 61.208790,215.041214 61.150627,215.403351 
	C61.133343,216.495834 61.174221,217.226212 61.127731,218.370758 
	C60.731583,221.824234 60.422806,224.863541 59.945526,228.261917 
	C57.851345,238.080658 55.925671,247.540329 54.000000,257.000000 
z"/>
<path fill="#344D60" opacity="1.000000" stroke="none" 
	d="
M54.468658,257.000000 
	C55.925671,247.540329 57.851345,238.080658 60.226059,228.117645 
	C62.120247,226.449646 63.565395,225.284988 65.399765,224.167542 
	C67.080254,224.291290 68.371513,224.367828 69.828346,224.757263 
	C70.528847,229.538971 71.063774,234.007767 71.681046,239.164520 
	C74.484909,239.164520 77.731361,239.164520 81.007263,239.509232 
	C82.363586,242.228241 83.690453,244.602539 84.630768,246.906891 
	C76.709579,246.575104 69.176239,246.180313 61.639755,246.106491 
	C57.766659,246.068558 57.179169,249.440918 57.384460,252.125656 
	C57.466122,253.193588 60.230827,254.702713 61.891499,254.874283 
	C65.824318,255.280609 69.832802,254.877243 73.800713,255.041840 
	C78.206505,255.224609 82.601212,255.674545 87.000687,256.256134 
	C87.000626,256.504089 87.000000,257.000000 87.000000,257.000000 
	C76.312439,257.000000 65.624878,257.000000 54.468658,257.000000 
M66.782158,233.316483 
	C67.023811,231.707275 67.265465,230.098068 67.507118,228.488846 
	C66.112007,228.923996 63.936470,228.965088 63.477962,229.873154 
	C62.393970,232.020020 63.302872,233.714996 66.782158,233.316483 
z"/>
<path fill="#3C5365" opacity="1.000000" stroke="none" 
	d="
M87.400223,257.000000 
	C87.000000,257.000000 87.000626,256.504089 87.329712,256.196655 
	C88.731163,255.601013 89.803535,255.312790 90.875908,255.024567 
	C90.914108,255.462875 90.952309,255.901199 90.995255,256.669739 
	C89.933479,257.000000 88.866966,257.000000 87.400223,257.000000 
z"/>
<path fill="#5393C4" opacity="1.000000" stroke="none" 
	d="
M142.817245,131.991928 
	C142.873642,132.151047 142.930054,132.310165 142.736664,132.806030 
	C141.320755,134.447769 140.154678,135.752777 138.701157,136.874237 
	C136.956284,135.889938 135.498856,135.089172 133.790176,134.150345 
	C133.056885,136.946945 132.496140,139.085464 131.624390,141.346527 
	C119.591393,146.936462 113.099266,156.100662 111.464806,168.963257 
	C109.721069,168.936462 108.378151,168.928284 106.616364,168.872925 
	C98.485535,168.308868 90.773575,167.791992 82.616631,167.194473 
	C79.783249,167.084091 77.394859,167.054352 74.728050,166.953918 
	C73.967705,166.589722 73.485764,166.296219 73.030106,165.562790 
	C72.827293,152.224289 67.209473,144.198853 55.990730,140.353012 
	C55.423748,136.727783 54.859627,133.497055 54.229843,129.890274 
	C51.990711,130.871170 50.519646,131.515610 48.892921,131.788727 
	C47.864582,129.812866 46.991905,128.208298 46.119225,126.603745 
	C46.119225,126.603745 46.326588,126.213264 46.769890,126.030373 
	C47.472805,125.624123 47.732422,125.400764 47.992043,125.177399 
	C49.716091,124.446602 51.576313,123.921753 53.112152,122.906288 
	C54.006237,122.315140 54.380474,120.937744 55.053734,119.167427 
	C58.481083,115.199455 60.643902,111.407509 61.160179,106.673683 
	C61.265175,105.710915 62.379829,104.858253 63.469551,103.955139 
	C66.497185,103.980240 69.084305,104.005043 72.124191,104.021133 
	C74.384171,104.008858 76.191376,104.005280 78.406822,104.082382 
	C90.538010,104.767548 102.260963,105.372040 114.456009,106.034309 
	C116.834473,106.153717 118.740837,106.215355 120.971985,106.406738 
	C124.188728,106.719856 127.080696,106.903214 129.980042,107.533646 
	C129.137619,114.151588 130.600204,119.597603 135.043182,124.109367 
	C134.543121,129.040161 139.418167,128.310532 141.932739,130.862549 
	C142.392075,131.592468 142.589539,131.806183 142.817245,131.991928 
M100.059998,129.241302 
	C97.727966,129.179672 95.395935,129.118042 92.324837,128.845398 
	C89.745316,128.654617 87.165787,128.463837 83.695686,128.166443 
	C79.195473,127.439529 78.634140,130.043091 79.158745,133.546051 
	C80.244194,140.793961 85.953781,146.560318 92.463158,146.994522 
	C101.934494,147.626297 107.647537,144.067139 110.187981,135.952133 
	C111.722321,131.050964 111.197426,130.328766 105.196854,129.773895 
	C103.766830,129.667664 102.336807,129.561432 100.059998,129.241302 
M123.835930,138.502274 
	C124.861275,136.327744 126.497971,134.198746 126.664665,131.960251 
	C126.753517,130.767212 124.450821,128.571426 122.957039,128.296143 
	C121.133614,127.960129 118.169296,128.563889 117.261475,129.857864 
	C116.160072,131.427734 115.767113,134.809921 116.760437,136.186081 
	C117.886726,137.746445 120.887444,137.953827 123.835930,138.502274 
M70.082695,125.104385 
	C69.251999,125.080238 68.148949,124.703789 67.640701,125.096718 
	C65.988213,126.374283 63.460842,127.829681 63.310890,129.410217 
	C63.122936,131.391312 64.476242,134.676254 66.044693,135.350525 
	C67.713242,136.067795 71.139168,135.073303 72.506622,133.615295 
	C75.270401,130.668472 74.246162,127.520996 70.082695,125.104385 
M85.345993,157.192062 
	C87.721207,157.949844 90.057755,158.932465 92.491333,159.351028 
	C93.420998,159.510925 94.572800,158.379379 95.623367,157.836349 
	C95.069504,156.934509 94.718445,155.544617 93.926567,155.215576 
	C90.555679,153.814835 87.087044,152.613388 83.576447,151.611176 
	C82.746445,151.374237 81.615242,152.192398 80.622597,152.525223 
	C81.026154,153.638458 81.198227,154.942169 81.907372,155.803970 
	C82.462837,156.479019 83.683441,156.606766 85.345993,157.192062 
z"/>
<path fill="#344E64" opacity="1.000000" stroke="none" 
	d="
M61.129753,214.095566 
	C60.860691,211.304214 60.591629,208.512878 60.576080,205.278442 
	C62.223980,204.517258 63.618362,204.199158 65.425453,203.911087 
	C68.111412,203.587463 70.384666,203.233810 72.657921,202.880157 
	C72.161339,202.544174 71.664764,202.208206 71.168190,201.872238 
	C71.168190,196.237564 71.168190,190.602875 71.537697,185.002014 
	C74.614853,185.694107 77.322502,186.352386 79.927185,187.341248 
	C81.483902,191.768646 82.048462,197.238434 85.059937,199.640457 
	C89.576607,203.242996 96.943192,198.755020 98.015373,192.866318 
	C98.132538,192.222794 98.381569,191.603287 99.016960,190.975098 
	C102.348633,190.638138 105.232780,190.298721 108.323990,189.989990 
	C108.531052,190.020676 108.941086,190.105133 108.925751,190.512695 
	C108.666107,193.723953 108.421806,196.527634 108.169540,199.422760 
	C120.403625,198.870422 120.403625,198.870422 121.133072,207.249695 
	C121.036293,207.857620 120.996330,208.207092 120.499260,208.613998 
	C114.702713,209.221710 109.363289,209.771988 103.604538,210.280457 
	C96.786880,211.038742 90.388550,211.838837 83.528694,212.645264 
	C76.109055,213.360901 69.150932,214.070190 62.046230,214.622498 
	C61.671944,214.281982 61.415314,214.158676 61.129753,214.095566 
z"/>
<path fill="#BFD4E4" opacity="1.000000" stroke="none" 
	d="
M77.998581,104.001701 
	C76.191376,104.005280 74.384171,104.008858 72.129868,103.609558 
	C72.063248,101.772133 72.243416,100.244179 72.860802,98.920074 
	C74.928848,94.484726 73.968597,90.955238 70.015297,88.165176 
	C83.186699,72.718704 111.235352,74.239944 123.475624,91.639389 
	C119.379547,92.938072 118.570000,95.683632 119.139435,99.112022 
	C119.538971,101.517464 120.137512,103.889839 120.647194,106.276985 
	C118.740837,106.215355 116.834473,106.153717 114.387566,105.692108 
	C110.213142,97.803711 104.508484,93.219025 95.950188,93.100258 
	C87.783005,92.986931 81.462639,96.219780 77.998581,104.001701 
z"/>
<path fill="#344E64" opacity="1.000000" stroke="none" 
	d="
M55.993599,140.747513 
	C67.209473,144.198853 72.827293,152.224289 72.620346,165.589203 
	C71.097000,166.168121 70.009720,166.280701 68.525581,166.303513 
	C66.080513,166.413803 64.032288,166.613876 61.540894,166.815582 
	C51.594009,167.104080 51.244480,167.330231 49.655960,174.074188 
	C46.465092,176.453674 43.614574,178.759140 40.402668,180.990387 
	C36.900745,179.639755 33.660065,179.393799 31.697104,182.520889 
	C29.685514,185.725433 31.719181,188.412109 33.976295,191.087738 
	C33.624641,192.897491 33.331532,194.341324 32.730949,195.670563 
	C30.243307,193.000946 28.063141,190.445877 25.882977,187.890823 
	C26.118698,178.279755 27.836370,176.245026 38.824646,173.197220 
	C40.124115,172.314728 41.417931,171.515411 41.526783,170.578461 
	C42.286350,164.040314 46.100121,160.817932 52.303860,159.592926 
	C53.649719,159.327164 54.746490,157.800003 55.957989,156.853836 
	C55.958355,156.464691 55.958717,156.075562 56.126030,155.112976 
	C56.140743,152.387741 55.988510,150.235931 55.879780,147.629593 
	C55.946724,145.032532 55.970161,142.890030 55.993599,140.747513 
z"/>
<path fill="#2F4658" opacity="1.000000" stroke="none" 
	d="
M100.810982,241.023605 
	C100.810982,241.023605 100.387444,240.990128 100.190941,240.515686 
	C100.312706,236.996613 100.630974,233.951965 100.949242,230.907333 
	C100.949242,230.907333 100.941170,230.976181 101.264893,230.978836 
	C102.058487,230.991699 102.528358,231.001907 103.294815,231.224274 
	C106.813164,232.666595 109.986717,234.048691 113.268387,235.090057 
	C117.802597,236.528870 122.418289,237.710922 127.225357,239.281250 
	C127.607346,239.851929 127.785683,240.134613 127.915497,240.438065 
	C131.864426,249.669418 131.226898,250.673218 121.823151,250.042633 
	C121.823151,250.042633 121.374023,250.000702 120.938843,249.758850 
	C119.962196,249.353943 119.420715,249.190903 118.879234,249.027863 
	C115.116676,247.431961 111.354111,245.836044 107.106125,243.888031 
	C106.372429,243.330643 106.102425,243.159698 105.810684,243.023071 
	C105.392723,243.016144 104.974754,243.009232 104.086105,242.768387 
	C103.367363,242.330414 103.097885,242.160263 102.807007,242.024033 
	C102.807007,242.024033 102.370026,241.995163 101.996338,241.764923 
	C101.374207,241.329193 101.103653,241.158829 100.810982,241.023605 
z"/>
<path fill="#2F4658" opacity="1.000000" stroke="none" 
	d="
M90.940399,254.707428 
	C89.803535,255.312790 88.731163,255.601013 87.329773,255.948700 
	C82.601212,255.674545 78.206505,255.224609 73.800713,255.041840 
	C69.832802,254.877243 65.824318,255.280609 61.891499,254.874283 
	C60.230827,254.702713 57.466122,253.193588 57.384460,252.125656 
	C57.179169,249.440918 57.766659,246.068558 61.639755,246.106491 
	C69.176239,246.180313 76.709579,246.575104 84.950623,247.057220 
	C86.803497,247.501175 87.949974,247.724884 89.096451,247.948578 
	C89.096451,247.948578 89.029396,247.971817 89.041351,248.305557 
	C89.748283,250.127060 90.443260,251.614822 91.138237,253.102585 
	C91.093788,253.531815 91.049339,253.961044 90.940399,254.707428 
z"/>
<path fill="#344D60" opacity="1.000000" stroke="none" 
	d="
M126.999084,239.002945 
	C122.418289,237.710922 117.802597,236.528870 113.268387,235.090057 
	C109.986717,234.048691 106.813164,232.666595 103.368958,230.878708 
	C103.702675,227.849060 107.682510,226.171310 104.863991,222.916626 
	C104.873077,222.526855 104.882164,222.137085 105.133232,221.335159 
	C105.659561,220.685928 105.943901,220.448868 106.629303,220.190826 
	C111.346245,219.825394 115.662125,219.480957 119.811562,219.443115 
	C116.006927,227.823746 116.007919,227.821396 124.212814,231.275208 
	C124.814690,231.528580 125.387650,231.850647 125.981750,232.528107 
	C126.325996,234.944611 126.662544,236.973785 126.999084,239.002945 
z"/>
<path fill="#487BA2" opacity="1.000000" stroke="none" 
	d="
M121.189888,206.991241 
	C120.403625,198.870422 120.403625,198.870422 108.169540,199.422760 
	C108.421806,196.527634 108.666107,193.723953 109.036552,190.136124 
	C110.795891,188.570129 112.357536,187.490250 114.079193,187.076889 
	C116.605942,186.470245 119.247116,186.340195 121.839531,186.007095 
	C120.152184,192.707932 123.417465,197.953613 126.613106,203.372284 
	C127.957825,205.652466 128.251785,208.552307 128.737396,211.471863 
	C126.030891,210.179276 123.610390,208.585266 121.189888,206.991241 
z"/>
<path fill="#4579A1" opacity="1.000000" stroke="none" 
	d="
M121.133072,207.249695 
	C123.610390,208.585266 126.030891,210.179276 128.782837,211.872070 
	C128.864731,217.381683 128.641220,222.793945 128.344528,228.202179 
	C128.282303,229.336609 127.950790,230.456253 127.149582,231.833832 
	C126.361877,232.103561 126.167961,232.122177 125.974052,232.140778 
	C125.387650,231.850647 124.814690,231.528580 124.212814,231.275208 
	C116.007919,227.821396 116.006927,227.823746 119.882133,219.023911 
	C120.398232,215.050934 120.677315,211.803741 120.956383,208.556549 
	C120.996330,208.207092 121.036293,207.857620 121.133072,207.249695 
z"/>
<path fill="#344D60" opacity="1.000000" stroke="none" 
	d="
M134.122787,159.130142 
	C133.800873,162.455185 133.478958,165.780243 132.964172,169.685577 
	C132.845886,170.849228 132.920456,171.432617 133.074280,172.364014 
	C133.778534,174.509888 134.403519,176.307739 134.853271,178.282593 
	C134.244064,178.681961 133.810104,178.904312 133.029236,179.049652 
	C131.154144,177.985413 129.625961,176.998184 127.834045,175.815704 
	C123.455376,176.364456 122.346870,174.624542 123.555244,170.847672 
	C123.845276,169.941147 123.860619,168.946732 124.090118,167.618622 
	C124.786766,163.926041 125.491188,160.621567 125.979698,157.285492 
	C126.562889,153.302841 126.212273,148.932480 130.977081,147.412689 
	C130.931534,149.507080 130.871643,151.180283 130.618683,153.136810 
	C130.129166,154.976639 129.832703,156.533127 129.460556,158.486938 
	C131.309860,158.742081 132.716324,158.936111 134.122787,159.130142 
z"/>
<path fill="#487BA2" opacity="1.000000" stroke="none" 
	d="
M80.977814,239.164520 
	C77.731361,239.164520 74.484909,239.164520 71.681046,239.164520 
	C71.063774,234.007767 70.528847,229.538971 70.287064,224.645844 
	C74.044144,223.785767 77.508087,223.350006 81.398193,222.933701 
	C83.243111,222.991745 84.661858,223.030350 86.080612,223.068954 
	C85.058693,228.080307 84.036774,233.091644 82.635712,238.561737 
	C81.830322,239.068497 81.404068,239.116501 80.977814,239.164520 
z"/>
<path fill="#5190C1" opacity="1.000000" stroke="none" 
	d="
M80.972015,222.914246 
	C77.508087,223.350006 74.044144,223.785767 70.121490,224.332947 
	C68.371513,224.367828 67.080254,224.291290 65.263443,223.843445 
	C63.563629,221.633636 62.389362,219.795105 61.215096,217.956573 
	C61.174221,217.226212 61.133343,216.495834 61.401352,215.355621 
	C61.871098,214.890335 62.031956,214.834915 62.192818,214.779495 
	C69.150932,214.070190 76.109055,213.360901 83.470551,213.039749 
	C82.906631,216.590012 81.939323,219.752121 80.972015,222.914246 
z"/>
<path fill="#2F4658" opacity="1.000000" stroke="none" 
	d="
M40.764061,181.064590 
	C43.614574,178.759140 46.465092,176.453674 49.744789,174.381485 
	C50.495052,175.405365 50.816139,176.195969 51.170002,177.351303 
	C51.755165,179.858688 52.307552,182.001328 52.859940,184.143982 
	C52.177639,184.107666 51.495342,184.071350 50.198788,184.261703 
	C48.736973,187.383392 47.889408,190.278381 47.041847,193.173386 
	C46.971497,193.466431 46.812611,193.698975 45.980759,193.963211 
	C43.620140,195.086746 41.843948,196.118118 40.067757,197.149475 
	C40.067757,197.149475 40.004040,197.080139 39.629196,197.028229 
	C37.182373,196.579254 35.110397,196.182190 33.038422,195.785141 
	C33.331532,194.341324 33.624641,192.897491 34.374367,191.144653 
	C41.719086,190.500610 43.238525,187.998276 40.764061,181.064590 
z"/>
<path fill="#487BA2" opacity="1.000000" stroke="none" 
	d="
M32.730949,195.670563 
	C35.110397,196.182190 37.182373,196.579254 39.663971,196.996490 
	C39.385090,198.784698 38.696587,200.552704 37.539406,202.582397 
	C29.649143,200.157288 24.269430,203.126419 19.947588,209.025803 
	C17.212212,204.163269 20.364077,200.031326 21.744732,195.752350 
	C22.583712,193.152145 24.091017,190.767593 25.590538,188.088501 
	C28.063141,190.445877 30.243307,193.000946 32.730949,195.670563 
z"/>
<path fill="#45759B" opacity="1.000000" stroke="none" 
	d="
M52.929333,184.506744 
	C52.307552,182.001328 51.755165,179.858688 51.543980,177.360687 
	C54.195175,178.584000 57.778759,179.685165 58.582371,181.828598 
	C61.262852,188.978073 62.946884,196.501129 65.012741,203.881042 
	C63.618362,204.199158 62.223980,204.517258 60.476063,204.881531 
	C57.747929,198.241653 55.373329,191.555573 52.929333,184.506744 
z"/>
<path fill="#497DA5" opacity="1.000000" stroke="none" 
	d="
M69.631821,88.104904 
	C73.968597,90.955238 74.928848,94.484726 72.860802,98.920074 
	C72.243416,100.244179 72.063248,101.772133 71.677094,103.618271 
	C69.084305,104.005043 66.497185,103.980240 63.171417,103.747879 
	C61.240318,103.335670 60.047863,103.131035 58.855408,102.926399 
	C59.712364,100.338699 60.738586,97.792633 61.387592,95.153793 
	C62.425610,90.933250 64.459999,88.021027 69.631821,88.104904 
z"/>
<path fill="#2F4658" opacity="1.000000" stroke="none" 
	d="
M128.097778,176.010956 
	C129.625961,176.998184 131.154144,177.985413 132.923767,179.445740 
	C133.096069,181.282806 133.026932,182.646774 132.977692,184.379608 
	C135.763947,189.846527 139.310318,190.102600 142.471863,185.070404 
	C142.736908,183.150650 142.817383,181.579742 143.326599,180.007416 
	C145.461243,180.010712 147.167145,180.015427 148.941559,180.400833 
	C149.099167,181.808853 149.188293,182.836212 149.084564,184.175949 
	C147.260544,187.017868 145.629364,189.547394 143.998169,192.076904 
	C143.998169,192.076904 144.001404,192.001663 143.851166,192.126938 
	C143.450867,192.422867 143.236603,192.630463 143.058167,192.875031 
	C142.645920,192.925827 142.233688,192.976624 141.293549,193.141022 
	C140.479782,193.420853 140.239182,193.637390 140.043869,193.904236 
	C139.274261,193.934631 138.504669,193.965027 137.232681,193.630402 
	C133.765808,191.523560 130.801315,189.781754 127.836823,188.039948 
	C127.535522,187.950836 127.300774,187.773590 127.059235,186.916214 
	C126.895920,185.568985 126.805939,184.813766 126.767578,183.635468 
	C127.245392,180.811935 127.671585,178.411438 128.097778,176.010956 
z"/>
<path fill="#497DA5" opacity="1.000000" stroke="none" 
	d="
M120.971985,106.406738 
	C120.137512,103.889839 119.538971,101.517464 119.139435,99.112022 
	C118.570000,95.683632 119.379547,92.938072 123.590706,91.963005 
	C128.678024,91.425064 130.301697,94.275963 131.015472,98.267494 
	C131.493820,100.942497 132.167679,103.582542 132.548004,106.602127 
	C131.552200,107.006210 130.762421,107.046394 129.972656,107.086571 
	C127.080696,106.903214 124.188728,106.719856 120.971985,106.406738 
z"/>
<path fill="#A3B5C3" opacity="1.000000" stroke="none" 
	d="
M185.831375,181.986374 
	C186.127457,191.358185 174.593506,197.624710 165.754181,194.257172 
	C164.552414,193.799332 163.388657,193.241699 162.164993,192.076569 
	C164.149597,189.724136 166.176498,188.025421 168.441193,186.310776 
	C168.679001,186.294846 169.155640,186.289948 169.351685,186.540131 
	C172.619949,186.093018 175.730301,185.528046 178.752258,184.656555 
	C181.167755,183.959946 183.475693,182.890396 185.831375,181.986374 
z"/>
<path fill="#5393C4" opacity="1.000000" stroke="none" 
	d="
M165.022919,170.937347 
	C170.938110,173.326813 171.543900,178.103073 170.137909,183.510086 
	C168.137802,178.663940 165.216370,177.272339 160.228317,178.543716 
	C156.978378,179.372101 153.393845,178.887726 149.951874,178.662170 
	C149.943100,177.893692 149.941650,177.454529 150.148132,176.797043 
	C150.556274,176.018982 150.756500,175.459229 150.956726,174.899460 
	C152.081558,173.676392 153.206390,172.453308 155.023438,171.089218 
	C158.818069,170.944595 161.920486,170.940964 165.022919,170.937347 
z"/>
<path fill="#508BB9" opacity="1.000000" stroke="none" 
	d="
M81.398178,222.933701 
	C81.939323,219.752121 82.906631,216.590012 83.932083,213.033417 
	C90.388550,211.838837 96.786880,211.038742 103.610184,210.665771 
	C104.766174,214.132523 105.497208,217.172165 106.228241,220.211792 
	C105.943901,220.448868 105.659561,220.685928 105.122284,221.042694 
	C103.163498,221.346436 101.457649,221.530487 99.401840,221.420624 
	C100.178612,215.218048 97.532219,212.901794 91.716873,214.595490 
	C87.402504,215.852020 85.509903,218.616577 86.046707,223.064545 
	C86.046707,223.064545 86.066597,223.029572 86.073608,223.049255 
	C84.661858,223.030350 83.243111,222.991745 81.398178,222.933701 
z"/>
<path fill="#5190C1" opacity="1.000000" stroke="none" 
	d="
M19.987503,209.411438 
	C24.269430,203.126419 29.649143,200.157288 37.459717,202.938721 
	C38.510033,204.135254 39.171360,205.237152 39.891106,206.910919 
	C39.900543,207.659866 39.851566,207.836960 39.402458,208.012726 
	C32.911816,209.708389 26.821304,211.405334 20.525314,213.084381 
	C20.319832,213.066483 19.943233,212.898117 19.943233,212.898117 
	C19.971294,211.864441 19.999355,210.830750 19.987503,209.411438 
z"/>
<path fill="#508BB9" opacity="1.000000" stroke="none" 
	d="
M20.730793,213.102295 
	C26.821304,211.405334 32.911816,209.708389 39.579437,208.325409 
	C40.409954,209.766464 40.663361,210.893509 40.495205,212.015564 
	C38.435150,212.082001 36.464874,211.599808 35.227867,212.341141 
	C32.723152,213.842209 30.615850,216.006424 28.344692,217.897217 
	C30.267950,219.281250 32.191212,220.665283 34.114471,222.049316 
	C31.723118,222.053452 29.331766,222.057571 26.389126,221.744629 
	C24.135490,218.652466 22.433140,215.877380 20.730793,213.102295 
z"/>
<path fill="#4C83AE" opacity="1.000000" stroke="none" 
	d="
M146.829453,140.985840 
	C148.085541,149.556335 144.236938,155.196548 136.319336,158.374664 
	C135.645813,156.046814 135.315125,154.042099 135.276489,151.849060 
	C139.116425,149.391083 140.588150,146.169922 140.006271,141.740616 
	C140.027542,141.304382 140.037643,141.129974 140.356094,141.092468 
	C142.719452,141.148193 144.774445,141.067017 146.829453,140.985840 
z"/>
<path fill="#4C83AE" opacity="1.000000" stroke="none" 
	d="
M46.984074,152.029480 
	C40.848030,148.181351 40.583820,142.160446 41.465088,135.448410 
	C43.943855,135.338882 45.967239,135.665100 47.993866,136.424103 
	C47.267704,141.308777 48.779320,144.951065 51.722443,148.147003 
	C49.949604,149.558243 48.466839,150.793854 46.984074,152.029480 
z"/>
<path fill="#A3B5C3" opacity="1.000000" stroke="none" 
	d="
M31.856571,229.994156 
	C31.856571,232.472153 31.856571,234.950134 31.856571,237.414322 
	C25.515530,238.563507 21.782280,236.726456 17.984072,230.242783 
	C17.570601,229.452026 17.369143,229.214996 17.126156,229.013260 
	C17.075428,228.584290 17.024700,228.155304 17.349918,227.387619 
	C22.436098,228.030655 27.146336,229.012405 31.856571,229.994156 
z"/>
<path fill="#AEC2D1" opacity="1.000000" stroke="none" 
	d="
M40.916767,212.020569 
	C40.663361,210.893509 40.409954,209.766464 39.979572,208.326721 
	C39.851566,207.836960 39.900543,207.659866 40.013775,207.214905 
	C47.493088,207.152939 51.288654,211.492233 52.541092,218.539291 
	C49.122997,218.889908 46.138680,218.941620 43.154366,218.993332 
	C42.347256,218.332962 41.540146,217.672607 40.406277,216.658722 
	C40.358601,214.876984 40.637684,213.448776 40.916767,212.020569 
z"/>
<path fill="#4C83AE" opacity="1.000000" stroke="none" 
	d="
M168.203400,186.326706 
	C166.176498,188.025421 164.149597,189.724136 161.990311,191.734467 
	C161.151855,191.992874 160.445770,191.939651 159.258789,191.533081 
	C156.183365,188.799637 153.588867,186.419556 151.327499,183.808273 
	C157.459747,182.779816 163.209625,182.278717 168.203400,186.326706 
z"/>
<path fill="#548EBC" opacity="1.000000" stroke="none" 
	d="
M129.980042,107.533646 
	C130.762421,107.046394 131.552200,107.006210 132.736557,106.950157 
	C134.593079,107.005844 136.055008,107.077393 138.145432,107.179703 
	C137.315399,112.818527 136.518799,118.230186 135.382690,123.875610 
	C130.600204,119.597603 129.137619,114.151588 129.980042,107.533646 
z"/>
<path fill="#508BB9" opacity="1.000000" stroke="none" 
	d="
M168.441193,186.310776 
	C163.209625,182.278717 157.459747,182.779816 151.040924,183.776779 
	C150.039963,183.938828 149.658707,183.901184 149.277435,183.863556 
	C149.188293,182.836212 149.099167,181.808853 148.987061,180.146881 
	C148.971802,179.340530 148.979523,179.168808 149.230225,178.997345 
	C149.473221,178.997620 149.959198,178.991455 149.959198,178.991455 
	C153.393845,178.887726 156.978378,179.372101 160.228317,178.543716 
	C165.216370,177.272339 168.137802,178.663940 169.818268,183.753983 
	C170.026810,184.431381 170.005920,184.838089 169.778961,185.660400 
	C169.572891,186.076035 169.155640,186.289948 169.155640,186.289948 
	C169.155640,186.289948 168.679001,186.294846 168.441193,186.310776 
z"/>
<path fill="#4C83AE" opacity="1.000000" stroke="none" 
	d="
M86.472900,223.040100 
	C85.509903,218.616577 87.402504,215.852020 91.716873,214.595490 
	C97.532219,212.901794 100.178612,215.218048 99.031754,221.496948 
	C94.974113,222.250015 90.936600,222.632828 86.472900,223.040100 
z"/>
<path fill="#4C83AE" opacity="1.000000" stroke="none" 
	d="
M40.495205,212.015564 
	C40.637684,213.448776 40.358601,214.876984 40.072983,216.674622 
	C38.322292,218.698975 36.578140,220.353897 34.474228,222.029083 
	C32.191212,220.665283 30.267950,219.281250 28.344692,217.897217 
	C30.615850,216.006424 32.723152,213.842209 35.227867,212.341141 
	C36.464874,211.599808 38.435150,212.082001 40.495205,212.015564 
z"/>
<path fill="#A3B5C3" opacity="1.000000" stroke="none" 
	d="
M52.049568,225.129898 
	C50.430370,228.258926 48.811180,231.387955 47.120338,234.655441 
	C40.367455,229.731796 39.799892,227.734833 43.458500,222.373260 
	C47.058033,221.986282 50.322323,221.565887 52.049568,225.129898 
z"/>
<path fill="#45759B" opacity="1.000000" stroke="none" 
	d="
M126.715958,184.058533 
	C126.805939,184.813766 126.895920,185.568985 126.983643,186.704865 
	C125.390709,186.557220 123.800026,186.028946 122.024437,185.753876 
	C119.247116,186.340195 116.605942,186.470245 114.079193,187.076889 
	C112.357536,187.490250 110.795891,188.570129 109.051895,189.728561 
	C108.941086,190.105133 108.531052,190.020676 108.321075,189.583313 
	C107.693565,186.770386 107.276031,184.394836 107.281723,181.989929 
	C111.679680,182.098709 115.669960,182.069565 119.623337,182.437271 
	C122.017097,182.659943 124.353683,183.497345 126.715958,184.058533 
z"/>
<path fill="#548EBC" opacity="1.000000" stroke="none" 
	d="
M58.420994,102.953316 
	C60.047863,103.131035 61.240318,103.335670 62.730904,103.747566 
	C62.379829,104.858253 61.265175,105.710915 61.160179,106.673683 
	C60.643902,111.407509 58.481083,115.199455 55.037346,118.767052 
	C54.498497,113.962624 54.041153,108.811890 53.543732,103.209854 
	C55.489491,103.109291 56.738033,103.044762 58.420994,102.953316 
z"/>
<path fill="#BFD4E4" opacity="1.000000" stroke="none" 
	d="
M165.055573,170.666199 
	C161.920486,170.940964 158.818069,170.944595 155.314911,170.971252 
	C155.419174,164.928955 158.997757,160.781891 165.530228,159.435669 
	C163.203781,162.993393 164.568817,166.048309 166.043625,169.100601 
	C165.725159,169.532089 165.406693,169.963562 165.055573,170.666199 
z"/>
<path fill="#AEC2D1" opacity="1.000000" stroke="none" 
	d="
M166.428879,169.057037 
	C164.568817,166.048309 163.203781,162.993393 165.901611,159.501282 
	C170.242264,159.868393 174.502243,160.576889 178.518250,161.633102 
	C173.929749,161.716888 171.445267,163.367661 171.964600,168.110489 
	C170.247772,168.411484 168.530960,168.712463 166.428879,169.057037 
z"/>
<path fill="#3E6C91" opacity="1.000000" stroke="none" 
	d="
M149.084579,184.175949 
	C149.658707,183.901184 150.039963,183.938828 150.707794,184.007965 
	C153.588867,186.419556 156.183365,188.799637 158.907715,191.480881 
	C154.309097,191.861740 149.580643,191.941467 144.425171,192.049042 
	C145.629364,189.547394 147.260544,187.017868 149.084579,184.175949 
z"/>
<path fill="#AEC2D1" opacity="1.000000" stroke="none" 
	d="
M20.525311,213.084381 
	C22.433140,215.877380 24.135490,218.652466 26.002735,221.730194 
	C26.116653,223.132538 26.065676,224.232239 25.701233,225.634308 
	C22.311455,224.621979 19.235142,223.307297 16.158829,221.992615 
	C17.201448,219.069290 18.244066,216.145981 19.614960,213.060394 
	C19.943233,212.898117 20.319832,213.066483 20.525311,213.084381 
z"/>
<path fill="#A9BBC9" opacity="1.000000" stroke="none" 
	d="
M172.093536,168.427155 
	C171.445267,163.367661 173.929749,161.716888 178.691010,161.972992 
	C179.923584,163.587677 181.842926,165.791458 181.351089,166.725128 
	C179.797043,169.675323 174.270126,170.551605 172.093536,168.427155 
z"/>
<path fill="#AEC2D1" opacity="1.000000" stroke="none" 
	d="
M169.351685,186.540131 
	C169.155640,186.289948 169.572891,186.076035 169.779175,185.965820 
	C175.231216,186.768509 175.529922,182.144318 178.059174,178.201462 
	C180.502823,179.124435 183.233124,180.155685 185.897400,181.586670 
	C183.475693,182.890396 181.167755,183.959946 178.752258,184.656555 
	C175.730301,185.528046 172.619949,186.093018 169.351685,186.540131 
z"/>
<path fill="#3C5365" opacity="1.000000" stroke="none" 
	d="
M55.544983,156.899658 
	C54.746490,157.800003 53.649719,159.327164 52.303860,159.592926 
	C46.100121,160.817932 42.286350,164.040314 41.526783,170.578461 
	C41.417931,171.515411 40.124115,172.314728 39.141003,173.005630 
	C39.397030,170.621307 39.713249,168.350800 40.416981,166.207550 
	C42.747139,159.110962 48.424435,157.173141 55.544983,156.899658 
z"/>
<path fill="#3C5365" opacity="1.000000" stroke="none" 
	d="
M125.981750,232.528107 
	C126.167961,232.122177 126.361877,232.103561 126.848129,232.083664 
	C128.407196,235.795670 129.529678,239.566498 130.980804,243.206284 
	C132.465393,246.929977 132.255951,250.242340 129.155624,253.626602 
	C126.984291,252.668365 124.628212,251.628586 122.047638,250.315720 
	C131.226898,250.673218 131.864426,249.669418 127.915497,240.438065 
	C127.785683,240.134613 127.607346,239.851929 127.225357,239.281250 
	C126.662544,236.973785 126.325996,234.944611 125.981750,232.528107 
z"/>
<path fill="#548EBC" opacity="1.000000" stroke="none" 
	d="
M47.175308,152.337448 
	C48.466839,150.793854 49.949604,149.558243 52.105736,148.160400 
	C53.798161,148.026825 54.817215,148.055481 55.836273,148.084137 
	C55.988510,150.235931 56.140743,152.387741 56.106407,154.821747 
	C53.068737,154.284454 50.217636,153.464935 47.175308,152.337448 
z"/>
<path fill="#A9BBC9" opacity="1.000000" stroke="none" 
	d="
M16.082165,222.390350 
	C19.235142,223.307297 22.311455,224.621979 25.760422,225.946472 
	C28.026548,227.071762 29.920023,228.187256 31.835035,229.648453 
	C27.146336,229.012405 22.436098,228.030655 17.310589,227.064423 
	C16.895315,227.079926 16.945829,227.034164 16.839138,226.870514 
	C16.576134,226.443604 16.381401,226.212738 16.148247,226.014297 
	C16.100666,224.938889 16.053085,223.863495 16.082165,222.390350 
z"/>
<path fill="#548EBC" opacity="1.000000" stroke="none" 
	d="
M146.892822,140.615143 
	C144.774445,141.067017 142.719452,141.148193 140.286728,140.762375 
	C139.602203,139.216171 139.295395,138.136963 138.988586,137.057770 
	C140.154678,135.752777 141.320755,134.447769 142.804794,133.049927 
	C144.400558,135.386230 145.678375,137.815338 146.892822,140.615143 
z"/>
<path fill="#548EBC" opacity="1.000000" stroke="none" 
	d="
M47.990627,135.991333 
	C45.967239,135.665100 43.943855,135.338882 41.534683,135.000000 
	C42.630203,132.308624 44.111504,129.629868 45.856018,126.777435 
	C46.991905,128.208298 47.864582,129.812866 48.825916,132.108643 
	C48.606590,133.863693 48.298611,134.927505 47.990627,135.991333 
z"/>
<path fill="#A9BBC9" opacity="1.000000" stroke="none" 
	d="
M52.406952,224.927948 
	C50.322323,221.565887 47.058033,221.986282 43.535805,221.999878 
	C43.082214,221.241516 43.041565,220.488144 43.077641,219.364044 
	C46.138680,218.941620 49.122997,218.889908 52.475883,218.915436 
	C52.817745,220.903778 52.791042,222.814896 52.406952,224.927948 
z"/>
<path fill="#508BB9" opacity="1.000000" stroke="none" 
	d="
M134.984436,152.037369 
	C135.315125,154.042099 135.645813,156.046814 135.980957,158.433960 
	C135.572784,158.889755 135.160172,158.963135 134.435181,159.083328 
	C132.716324,158.936111 131.309860,158.742081 129.460556,158.486938 
	C129.832703,156.533127 130.129166,154.976639 130.982315,153.159286 
	C132.687485,152.611420 133.835953,152.324402 134.984436,152.037369 
z"/>
<path fill="#3C5365" opacity="1.000000" stroke="none" 
	d="
M132.995026,172.015991 
	C132.920456,171.432617 132.845886,170.849228 132.948761,170.089371 
	C138.121613,169.993698 143.412628,169.166107 146.892273,174.919403 
	C147.032425,175.660843 147.028915,175.828873 146.674225,175.924408 
	C141.880386,174.573273 137.437714,173.294632 132.995026,172.015991 
z"/>
<path fill="#487BA2" opacity="1.000000" stroke="none" 
	d="
M61.127728,218.370758 
	C62.389362,219.795105 63.563629,221.633636 64.874222,223.796249 
	C63.565395,225.284988 62.120247,226.449646 60.394562,227.758575 
	C60.422806,224.863541 60.731583,221.824234 61.127728,218.370758 
z"/>
<path fill="#3C5365" opacity="1.000000" stroke="none" 
	d="
M81.007263,239.509216 
	C81.404068,239.116501 81.830322,239.068497 82.576004,238.981659 
	C84.855682,241.743439 86.815941,244.544006 88.936325,247.646576 
	C87.949974,247.724884 86.803497,247.501175 85.337173,247.127167 
	C83.690453,244.602539 82.363586,242.228241 81.007263,239.509216 
z"/>
<path fill="#3C5365" opacity="1.000000" stroke="none" 
	d="
M100.667908,231.117111 
	C100.630974,233.951965 100.312706,236.996613 99.985931,240.460022 
	C97.223618,240.110626 96.269478,238.678665 97.975983,236.002487 
	C98.914803,234.530228 99.591637,232.890900 100.667908,231.117111 
z"/>
<path fill="#3C5365" opacity="1.000000" stroke="none" 
	d="
M128.011108,188.335999 
	C130.801315,189.781754 133.765808,191.523560 136.850952,193.572296 
	C134.042877,192.130173 131.114136,190.381119 128.011108,188.335999 
z"/>
<path fill="#3C5365" opacity="1.000000" stroke="none" 
	d="
M104.597145,223.131622 
	C107.682510,226.171310 103.702675,227.849060 103.072372,230.666534 
	C102.528358,231.001907 102.058487,230.991699 101.235794,230.959991 
	C102.032082,228.407883 103.181190,225.877258 104.597145,223.131622 
z"/>
<path fill="#3C5365" opacity="1.000000" stroke="none" 
	d="
M47.349796,192.967041 
	C47.889408,190.278381 48.736973,187.383392 49.857437,184.246643 
	C49.306145,186.923492 48.481945,189.842087 47.349796,192.967041 
z"/>
<path fill="#3C5365" opacity="1.000000" stroke="none" 
	d="
M40.423622,197.084839 
	C41.843948,196.118118 43.620140,195.086746 45.783195,194.048111 
	C44.373199,195.033966 42.576344,196.027100 40.423622,197.084839 
z"/>
<path fill="#3C5365" opacity="1.000000" stroke="none" 
	d="
M91.380249,252.892395 
	C90.443260,251.614822 89.748283,250.127060 89.051743,248.271637 
	C89.907539,249.496719 90.764900,251.089462 91.380249,252.892395 
z"/>
<path fill="#508BB9" opacity="1.000000" stroke="none" 
	d="
M147.025391,175.996918 
	C147.028915,175.828873 147.032425,175.660843 147.027542,175.240906 
	C148.071136,174.997498 149.123138,175.005981 150.565948,174.956970 
	C150.756500,175.459229 150.556274,176.018982 149.827255,176.797531 
	C148.869537,177.009644 148.440613,177.002960 147.873291,176.805145 
	C147.531967,176.369705 147.295471,176.164001 147.025391,175.996918 
z"/>
<path fill="#3C5365" opacity="1.000000" stroke="none" 
	d="
M119.047241,249.279480 
	C119.420715,249.190903 119.962196,249.353943 120.720520,249.702225 
	C120.363335,249.768677 119.789291,249.649887 119.047241,249.279480 
z"/>
<path fill="#A9BBC9" opacity="1.000000" stroke="none" 
	d="
M17.100864,229.284485 
	C17.369143,229.214996 17.570601,229.452026 17.846165,229.928162 
	C17.666389,229.939896 17.370981,229.747803 17.100864,229.284485 
z"/>
<path fill="#AEC2D1" opacity="1.000000" stroke="none" 
	d="
M16.116495,226.280365 
	C16.381401,226.212738 16.576134,226.443604 16.846546,226.903778 
	C16.668680,226.915939 16.376713,226.731186 16.116495,226.280365 
z"/>
<path fill="#548EBC" opacity="1.000000" stroke="none" 
	d="
M142.836823,131.736053 
	C142.589539,131.806183 142.392075,131.592468 142.119507,131.159241 
	C142.294922,131.138504 142.575653,131.309341 142.836823,131.736053 
z"/>
<path fill="#3C5365" opacity="1.000000" stroke="none" 
	d="
M143.292984,192.824188 
	C143.236603,192.630463 143.450867,192.422867 143.888794,192.128601 
	C143.994858,192.333405 143.811920,192.589523 143.292984,192.824188 
z"/>
<path fill="#3C5365" opacity="1.000000" stroke="none" 
	d="
M100.944427,241.237198 
	C101.103653,241.158829 101.374207,241.329193 101.783844,241.712067 
	C101.655991,241.743225 101.366936,241.597015 100.944427,241.237198 
z"/>
<path fill="#3C5365" opacity="1.000000" stroke="none" 
	d="
M102.946259,242.230576 
	C103.097885,242.160263 103.367363,242.330414 103.778030,242.709351 
	C103.580963,242.877991 103.295921,242.728943 102.946259,242.230576 
z"/>
<path fill="#3C5365" opacity="1.000000" stroke="none" 
	d="
M105.946564,243.233887 
	C106.102425,243.159698 106.372429,243.330643 106.782440,243.712601 
	C106.656929,243.741074 106.369682,243.592880 105.946564,243.233887 
z"/>
<path fill="#548EBC" opacity="1.000000" stroke="none" 
	d="
M47.707382,125.181229 
	C47.732422,125.400764 47.472805,125.624123 46.984093,125.975754 
	C46.977573,125.797699 47.200146,125.491379 47.707382,125.181229 
z"/>
<path fill="#3C5365" opacity="1.000000" stroke="none" 
	d="
M140.292999,193.849045 
	C140.239182,193.637390 140.479782,193.420853 140.981400,193.138336 
	C140.978790,193.279297 140.760452,193.536575 140.292999,193.849045 
z"/>
<path fill="#487BA2" opacity="1.000000" stroke="none" 
	d="
M62.046230,214.622498 
	C62.031956,214.834915 61.871098,214.890335 61.459511,214.993484 
	C61.208790,215.041214 61.068378,214.576691 61.099068,214.336121 
	C61.415314,214.158676 61.671944,214.281982 62.046230,214.622498 
z"/>
<path fill="#45759B" opacity="1.000000" stroke="none" 
	d="
M66.449905,233.458786 
	C63.302872,233.714996 62.393970,232.020020 63.477962,229.873154 
	C63.936470,228.965088 66.112007,228.923996 67.507118,228.488861 
	C67.265465,230.098068 67.023811,231.707275 66.449905,233.458786 
z"/>
<path fill="#FBFCFD" opacity="1.000000" stroke="none" 
	d="
M78.406822,104.082382 
	C81.462639,96.219780 87.783005,92.986931 95.950188,93.100258 
	C104.508484,93.219025 110.213142,97.803711 113.915466,105.634331 
	C102.260963,105.372040 90.538010,104.767548 78.406822,104.082382 
z"/>
<path fill="#344E64" opacity="1.000000" stroke="none" 
	d="
M130.962753,146.991501 
	C126.212273,148.932480 126.562889,153.302841 125.979698,157.285492 
	C125.491188,160.621567 124.786766,163.926041 123.689056,167.630707 
	C120.803635,168.370346 118.407104,168.723770 115.597382,169.056915 
	C114.078003,169.018402 112.971817,169.000137 111.865631,168.981873 
	C113.099266,156.100662 119.591393,146.936462 131.632568,141.749313 
	C131.884323,143.659546 131.816879,145.289490 131.552155,146.930847 
	C131.354889,146.942261 130.962753,146.991501 130.962753,146.991501 
z"/>
<path fill="#497DA5" opacity="1.000000" stroke="none" 
	d="
M105.872902,130.015152 
	C111.197426,130.328766 111.722321,131.050964 110.187981,135.952133 
	C107.647537,144.067139 101.934494,147.626297 92.463158,146.994522 
	C85.953781,146.560318 80.244194,140.793961 79.158745,133.546051 
	C78.634140,130.043091 79.195473,127.439529 84.066101,128.619659 
	C83.861870,135.999969 87.810059,141.489639 93.742668,142.012344 
	C100.598923,142.616455 105.339592,137.927780 105.872902,130.015152 
z"/>
<path fill="#F6C90B" opacity="1.000000" stroke="none" 
	d="
M105.534882,129.894531 
	C105.339592,137.927780 100.598923,142.616455 93.742668,142.012344 
	C87.810059,141.489639 83.861870,135.999969 84.511383,128.672958 
	C87.165787,128.463837 89.745316,128.654617 92.650894,129.352112 
	C92.516777,133.140457 93.478340,135.832764 97.152802,135.654617 
	C100.798676,135.477859 101.475304,132.639053 100.906784,129.455200 
	C102.336807,129.561432 103.766830,129.667664 105.534882,129.894531 
z"/>
<path fill="#4579A1" opacity="1.000000" stroke="none" 
	d="
M47.993866,136.424103 
	C48.298611,134.927505 48.606590,133.863693 48.981575,132.479950 
	C50.519646,131.515610 51.990711,130.871170 54.229843,129.890274 
	C54.859627,133.497055 55.423748,136.727783 55.990730,140.353012 
	C55.970161,142.890030 55.946724,145.032532 55.879780,147.629608 
	C54.817215,148.055481 53.798161,148.026825 52.395805,147.984772 
	C48.779320,144.951065 47.267704,141.308777 47.993866,136.424103 
z"/>
<path fill="#365F7E" opacity="1.000000" stroke="none" 
	d="
M83.061615,167.275116 
	C90.773575,167.791992 98.485535,168.308868 106.513931,169.200409 
	C104.857841,171.429840 102.885315,173.284607 100.560791,175.037170 
	C95.088982,171.910690 89.675209,171.227051 83.950912,172.532043 
	C83.644356,170.537827 83.352989,168.906464 83.061615,167.275116 
z"/>
<path fill="#497DA5" opacity="1.000000" stroke="none" 
	d="
M123.454575,138.625854 
	C120.887444,137.953827 117.886726,137.746445 116.760437,136.186081 
	C115.767113,134.809921 116.160072,131.427734 117.261475,129.857864 
	C118.169296,128.563889 121.133614,127.960129 122.957039,128.296143 
	C124.450821,128.571426 126.753517,130.767212 126.664665,131.960251 
	C126.497971,134.198746 124.861275,136.327744 123.454575,138.625854 
z"/>
<path fill="#497DA5" opacity="1.000000" stroke="none" 
	d="
M70.472458,125.196442 
	C74.246162,127.520996 75.270401,130.668472 72.506622,133.615295 
	C71.139168,135.073303 67.713242,136.067795 66.044693,135.350525 
	C64.476242,134.676254 63.122936,131.391312 63.310890,129.410217 
	C63.460842,127.829681 65.988213,126.374283 67.640701,125.096718 
	C68.148949,124.703789 69.251999,125.080238 70.472458,125.196442 
z"/>
<path fill="#3B678A" opacity="1.000000" stroke="none" 
	d="
M100.912796,175.139374 
	C102.885315,173.284607 104.857841,171.429840 106.932800,169.247589 
	C108.378151,168.928284 109.721069,168.936462 111.464806,168.963257 
	C112.971817,169.000137 114.078003,169.018402 115.519516,169.384094 
	C112.150810,172.837280 108.446770,175.943039 104.495659,178.879074 
	C103.136658,177.519363 102.024727,176.329376 100.912796,175.139374 
z"/>
<path fill="#3C5365" opacity="1.000000" stroke="none" 
	d="
M84.977264,157.084869 
	C83.683441,156.606766 82.462837,156.479019 81.907372,155.803970 
	C81.198227,154.942169 81.026154,153.638458 80.622597,152.525208 
	C81.615242,152.192398 82.746445,151.374237 83.576447,151.611176 
	C87.087044,152.613388 90.555679,153.814835 93.926567,155.215576 
	C94.718445,155.544617 95.069504,156.934509 95.623367,157.836365 
	C94.572800,158.379379 93.420998,159.510925 92.491333,159.351028 
	C90.057755,158.932465 87.721207,157.949844 84.977264,157.084869 
z"/>
<path fill="#3E6C91" opacity="1.000000" stroke="none" 
	d="
M68.922432,166.393295 
	C70.009720,166.280701 71.097000,166.168121 72.594055,166.029114 
	C73.485764,166.296219 73.967705,166.589722 74.793037,167.299377 
	C76.522850,169.850113 77.909264,171.984695 79.117149,174.337555 
	C78.615547,175.007935 78.292473,175.460068 77.695908,176.071960 
	C76.290619,177.174118 75.158836,178.116516 73.947784,178.711029 
	C72.219818,174.373199 70.571121,170.383255 68.922432,166.393295 
z"/>
<path fill="#487BA2" opacity="1.000000" stroke="none" 
	d="
M131.749435,146.919449 
	C131.816879,145.289490 131.884323,143.659546 131.943573,141.626801 
	C132.496140,139.085464 133.056885,136.946945 133.790176,134.150345 
	C135.498856,135.089172 136.956284,135.889938 138.701141,136.874237 
	C139.295395,138.136963 139.602203,139.216171 139.978378,140.625458 
	C140.037643,141.129974 140.027542,141.304382 139.670502,141.811096 
	C136.798859,143.735413 134.274139,145.327438 131.749435,146.919449 
z"/>
<path fill="#FBFCFD" opacity="1.000000" stroke="none" 
	d="
M100.483391,129.348267 
	C101.475304,132.639053 100.798676,135.477859 97.152802,135.654617 
	C93.478340,135.832764 92.516777,133.140457 93.020432,129.457611 
	C95.395935,129.118042 97.727966,129.179672 100.483391,129.348267 
z"/>
<path fill="#3B678A" opacity="1.000000" stroke="none" 
	d="
M79.295670,174.119293 
	C77.909264,171.984695 76.522850,169.850113 75.071449,167.370071 
	C77.394859,167.054352 79.783249,167.084091 82.616638,167.194473 
	C83.352989,168.906464 83.644356,170.537827 83.611053,172.621826 
	C81.956146,173.422745 80.625908,173.771027 79.295670,174.119293 
z"/>
<path fill="#4579A1" opacity="1.000000" stroke="none" 
	d="
M65.425453,203.911072 
	C62.946884,196.501129 61.262852,188.978073 58.582371,181.828598 
	C57.778759,179.685165 54.195175,178.584000 51.511204,176.995956 
	C50.816139,176.195969 50.495052,175.405365 50.085136,174.307465 
	C51.244480,167.330231 51.594009,167.104080 61.544373,167.238159 
	C62.104446,174.707306 66.259178,178.927139 71.922531,182.303619 
	C71.595459,183.386383 71.381828,184.177292 71.168190,184.968201 
	C71.168190,190.602875 71.168190,196.237564 71.168190,201.872238 
	C71.664764,202.208206 72.161339,202.544174 72.657921,202.880157 
	C70.384666,203.233810 68.111412,203.587463 65.425453,203.911072 
z"/>
<path fill="#F96597" opacity="1.000000" stroke="none" 
	d="
M98.569435,190.972641 
	C98.381569,191.603287 98.132538,192.222794 98.015373,192.866318 
	C96.943192,198.755020 89.576607,203.242996 85.059937,199.640457 
	C82.048462,197.238434 81.483902,191.768646 80.223190,187.221420 
	C81.782501,185.863159 82.942833,184.955307 84.525795,184.053436 
	C88.763954,184.307831 92.579491,184.556244 96.643379,184.848663 
	C97.221436,184.950653 97.551147,185.008621 97.979736,185.432953 
	C98.242218,187.523743 98.405823,189.248199 98.569435,190.972641 
z"/>
<path fill="#5190C1" opacity="1.000000" stroke="none" 
	d="
M106.629295,220.190811 
	C105.497208,217.172165 104.766174,214.132523 104.029503,210.707581 
	C109.363289,209.771988 114.702713,209.221710 120.499268,208.613998 
	C120.677315,211.803741 120.398232,215.050934 120.048584,218.717316 
	C115.662125,219.480957 111.346245,219.825394 106.629295,220.190811 
z"/>
<path fill="#2F4658" opacity="1.000000" stroke="none" 
	d="
M84.103165,184.047440 
	C82.942833,184.955307 81.782501,185.863159 80.326164,186.890839 
	C77.322502,186.352386 74.614853,185.694107 71.537697,185.002014 
	C71.381828,184.177292 71.595459,183.386383 72.144241,182.103210 
	C72.995277,180.760269 73.511162,179.909592 74.027046,179.058914 
	C75.158836,178.116516 76.290619,177.174118 77.726654,176.448578 
	C80.466789,178.486099 82.902664,180.306763 85.211426,182.385193 
	C84.757263,183.111115 84.430214,183.579269 84.103165,184.047440 
z"/>
<path fill="#344D60" opacity="1.000000" stroke="none" 
	d="
M99.016960,190.975098 
	C98.405823,189.248199 98.242218,187.523743 98.344498,185.351196 
	C100.764664,183.568695 102.918945,182.234329 105.306137,181.026184 
	C105.978867,181.441360 106.418686,181.730316 106.858505,182.019272 
	C107.276031,184.394836 107.693565,186.770386 108.114014,189.552628 
	C105.232780,190.298721 102.348633,190.638138 99.016960,190.975098 
z"/>
<path fill="#45759B" opacity="1.000000" stroke="none" 
	d="
M73.947769,178.711029 
	C73.511162,179.909592 72.995277,180.760269 72.257683,181.811356 
	C66.259178,178.927139 62.104446,174.707306 61.987553,167.236511 
	C64.032288,166.613876 66.080513,166.413803 68.525581,166.303513 
	C70.571121,170.383255 72.219818,174.373199 73.947769,178.711029 
z"/>
<path fill="#4579A1" opacity="1.000000" stroke="none" 
	d="
M40.402664,180.990387 
	C43.238525,187.998276 41.719086,190.500610 34.432907,190.778717 
	C31.719181,188.412109 29.685514,185.725433 31.697104,182.520889 
	C33.660065,179.393799 36.900745,179.639755 40.402664,180.990387 
z"/>
<path fill="#3E6C91" opacity="1.000000" stroke="none" 
	d="
M107.281723,181.989929 
	C106.418686,181.730316 105.978867,181.441360 105.256859,180.717300 
	C104.897354,179.871063 104.820045,179.459930 104.742737,179.048798 
	C108.446770,175.943039 112.150810,172.837280 115.932709,169.404358 
	C118.407104,168.723770 120.803635,168.370346 123.601234,168.004822 
	C123.860619,168.946732 123.845276,169.941147 123.555244,170.847672 
	C122.346870,174.624542 123.455376,176.364456 127.834061,175.815704 
	C127.671585,178.411438 127.245392,180.811935 126.767578,183.635483 
	C124.353683,183.497345 122.017097,182.659943 119.623337,182.437271 
	C115.669960,182.069565 111.679680,182.098709 107.281723,181.989929 
z"/>
<path fill="#344E64" opacity="1.000000" stroke="none" 
	d="
M146.674225,175.924408 
	C147.295471,176.164001 147.531967,176.369705 147.906921,177.091248 
	C148.381714,178.044678 148.684464,178.520874 148.987228,178.997070 
	C148.979523,179.168808 148.971802,179.340530 148.918579,179.766205 
	C147.167145,180.015427 145.461243,180.010712 143.023331,179.807434 
	C139.870407,179.107773 137.449463,178.606674 135.028519,178.105560 
	C134.403519,176.307739 133.778534,174.509888 133.074280,172.364014 
	C137.437714,173.294632 141.880386,174.573273 146.674225,175.924408 
z"/>
<path fill="#45759B" opacity="1.000000" stroke="none" 
	d="
M131.552155,146.930847 
	C134.274139,145.327438 136.798859,143.735413 139.659332,142.072906 
	C140.588150,146.169922 139.116425,149.391083 135.276489,151.849060 
	C133.835953,152.324402 132.687485,152.611420 131.175369,152.875961 
	C130.871643,151.180283 130.931534,149.507080 130.977081,147.412689 
	C130.962753,146.991501 131.354889,146.942261 131.552155,146.930847 
z"/>
<path fill="#45759B" opacity="1.000000" stroke="none" 
	d="
M134.853271,178.282593 
	C137.449463,178.606674 139.870407,179.107773 142.594604,179.808868 
	C142.817383,181.579742 142.736908,183.150650 142.136520,184.773010 
	C138.730347,184.553238 135.844070,184.281982 132.957794,184.010742 
	C133.026932,182.646774 133.096069,181.282806 133.270676,179.522751 
	C133.810104,178.904312 134.244064,178.681961 134.853271,178.282593 
z"/>
<path fill="#3E6C91" opacity="1.000000" stroke="none" 
	d="
M132.977707,184.379608 
	C135.844070,184.281982 138.730347,184.553238 141.951935,185.121857 
	C139.310318,190.102600 135.763947,189.846527 132.977707,184.379608 
z"/>
<path fill="#3E6C91" opacity="1.000000" stroke="none" 
	d="
M149.230225,178.997345 
	C148.684464,178.520874 148.381714,178.044678 148.045319,177.282379 
	C148.440613,177.002960 148.869537,177.009644 149.619324,177.015839 
	C149.941650,177.454529 149.943100,177.893692 149.951874,178.662170 
	C149.959198,178.991455 149.473221,178.997620 149.230225,178.997345 
z"/>
<path fill="#2C4254" opacity="1.000000" stroke="none" 
	d="
M104.495667,178.879074 
	C104.820045,179.459930 104.897354,179.871063 105.023949,180.591080 
	C102.918945,182.234329 100.764664,183.568695 98.245621,184.984833 
	C97.551147,185.008621 97.221436,184.950653 96.426178,184.574646 
	C92.535919,182.968231 89.813438,178.176514 85.338531,182.127441 
	C82.902664,180.306763 80.466789,178.486099 78.000160,176.288818 
	C78.292473,175.460068 78.615547,175.007935 79.117142,174.337555 
	C80.625908,173.771027 81.956146,173.422745 83.626236,172.984695 
	C89.675209,171.227051 95.088982,171.910690 100.560791,175.037170 
	C102.024727,176.329376 103.136658,177.519363 104.495667,178.879074 
z"/>
<path fill="#E05C8A" opacity="1.000000" stroke="none" 
	d="
M85.211426,182.385193 
	C89.813438,178.176514 92.535919,182.968231 96.177826,184.530624 
	C92.579491,184.556244 88.763954,184.307831 84.525787,184.053436 
	C84.430214,183.579269 84.757263,183.111115 85.211426,182.385193 
z"/>
</svg>