<svg version="1.1" id="Layer_1" xmlns="http://www.w3.org/2000/svg" xmlns:xlink="http://www.w3.org/1999/xlink" x="0px" y="0px"
	 width="100%" viewBox="0 0 192 256" enable-background="new 0 0 192 256" xml:space="preserve">
<path fill="#000000" opacity="1.000000" stroke="none" 
	d="
M63.000000,257.000000 
	C42.344360,257.000000 21.688721,257.000000 1.016541,257.000000 
	C1.016541,171.723236 1.016541,86.446457 1.016541,1.084839 
	C64.909195,1.084839 128.818527,1.084839 192.863937,1.084839 
	C192.863937,86.333183 192.863937,171.666565 192.863937,257.000000 
	C175.251770,257.000000 157.594543,257.000000 139.466156,256.591675 
	C138.700531,254.431625 138.406036,252.679886 137.959534,250.624908 
	C136.244614,249.535599 134.681686,248.749496 132.991241,247.657684 
	C131.572296,245.909653 130.280899,244.467316 128.991425,242.663406 
	C128.608749,241.201309 128.224152,240.100784 127.906021,238.550140 
	C127.924690,235.066803 127.876884,232.033585 127.898605,228.578522 
	C128.320374,223.500473 128.672623,218.844254 129.334091,214.034241 
	C131.350281,211.851379 133.057251,209.822342 135.129974,207.881989 
	C140.056274,205.000961 141.367630,201.795349 139.103851,198.584381 
	C142.405731,189.386688 142.349274,180.185242 141.928604,170.998932 
	C141.806412,168.330338 140.670181,165.708160 140.458130,163.049591 
	C144.296951,162.987900 147.676437,162.941299 151.410217,162.910995 
	C155.460281,161.294022 155.663528,159.486328 152.978912,156.259155 
	C149.910583,152.570694 147.673141,148.191055 145.459961,144.067261 
	C149.858887,144.014771 150.279984,141.619019 149.591537,138.438095 
	C149.277634,136.987701 149.058167,135.516876 148.969360,133.717285 
	C151.090927,129.439453 153.564331,125.571243 150.893036,120.630371 
	C149.267563,117.541496 147.580124,114.815613 145.936935,111.673126 
	C145.947388,110.141678 145.913589,109.026825 145.918427,107.570877 
	C145.651642,106.415337 145.346252,105.600883 145.031937,104.571457 
	C145.022995,104.356491 144.916168,103.939667 144.944138,103.538696 
	C143.662415,99.400269 142.352722,95.662811 141.032944,91.959854 
	C141.022858,91.994354 141.087006,91.961876 141.029312,91.624176 
	C139.997696,89.829185 139.023773,88.371902 138.040329,86.951447 
	C138.030807,86.988266 138.097794,86.952217 138.046082,86.607025 
	C133.641403,80.659943 129.057556,75.333405 122.033035,72.929138 
	C122.013947,72.963219 122.089859,72.944786 121.913055,72.629913 
	C115.590958,68.963776 109.228867,66.433128 101.571083,67.050064 
	C98.407928,67.031403 95.694061,67.068733 92.544563,67.065315 
	C88.056648,67.681023 83.870354,67.894249 79.975693,69.071938 
	C64.487122,73.755432 53.565350,83.489555 48.077427,99.299210 
	C47.974804,100.058281 47.930103,100.493988 47.646927,101.103485 
	C47.317726,101.843987 47.226994,102.410690 47.074734,103.304489 
	C46.967419,104.072937 46.921631,104.514282 46.584694,105.244926 
	C46.525627,109.041763 46.757710,112.549301 46.990696,116.445374 
	C47.340111,118.248802 47.688622,119.663719 48.024879,121.454941 
	C42.826160,130.552567 44.883942,138.573746 50.961937,144.453735 
	C50.705063,145.829315 50.418110,146.870880 49.969818,148.224976 
	C47.879444,151.198746 45.775715,153.753708 44.073013,156.552643 
	C42.526535,159.094772 41.456799,161.890305 46.379337,162.917267 
	C51.524242,163.020782 56.200386,163.074219 60.760689,163.488083 
	C60.093872,166.017914 59.168522,168.168198 59.056507,170.360046 
	C58.562752,180.021545 58.922211,189.633636 61.523773,199.123627 
	C59.826069,202.893204 62.031273,206.641953 66.491821,208.007355 
	C68.764565,210.791687 70.778809,213.362442 72.879372,216.383560 
	C73.367409,220.889175 73.769135,224.944458 74.103546,229.449799 
	C74.077652,232.933365 74.119057,235.966827 74.085297,239.358459 
	C73.298485,241.464752 72.586838,243.212891 71.603935,245.051514 
	C70.894028,245.762939 70.455383,246.383896 70.009140,247.001038 
	C70.001549,246.997223 70.000923,247.011215 69.728241,247.039886 
	C69.263359,247.367554 69.071159,247.666519 68.566277,248.094391 
	C66.798042,249.125275 65.342506,250.027252 63.537361,251.130707 
	C63.125175,253.221451 63.062588,255.110718 63.000000,257.000000 
z"/>
<path fill="#000000" opacity="1.000000" stroke="none" 
	d="
M109.000000,257.000000 
	C103.977905,257.000000 98.955818,257.000000 93.464432,256.572205 
	C92.940407,254.437698 92.885666,252.730942 92.900803,250.608612 
	C92.922821,248.792770 92.874962,247.392532 92.899567,245.560974 
	C92.925728,243.085770 92.879417,241.041885 92.898239,238.547852 
	C92.918480,235.065308 92.873596,232.032898 92.895630,228.599106 
	C93.323601,225.834717 93.684654,223.471695 94.505402,221.067780 
	C99.291885,221.050369 103.618660,221.073868 107.972626,221.499664 
	C108.390305,224.268143 108.780800,226.634323 109.104378,229.450485 
	C109.080605,232.932953 109.123756,235.965439 109.092194,239.432129 
	C109.069290,241.908356 109.121086,243.950363 109.096695,246.406952 
	C109.069992,248.222443 109.119484,249.623367 109.091629,251.444931 
	C109.009521,253.577057 109.004761,255.288528 109.000000,257.000000 
z"/>
<path fill="#D6D6D6" opacity="1.000000" stroke="none" 
	d="
M109.468658,257.000000 
	C109.004761,255.288528 109.009521,253.577057 109.549492,251.440765 
	C119.426987,250.986694 128.769272,250.957413 138.111557,250.928131 
	C138.406036,252.679886 138.700531,254.431625 138.997498,256.591675 
	C129.312439,257.000000 119.624878,257.000000 109.468658,257.000000 
z"/>
<path fill="#D6D6D6" opacity="1.000000" stroke="none" 
	d="
M92.830933,251.024200 
	C92.885666,252.730942 92.940407,254.437698 92.997574,256.572205 
	C83.312439,257.000000 73.624878,257.000000 63.468658,257.000000 
	C63.062588,255.110718 63.125175,253.221451 64.012253,251.149719 
	C74.168144,250.986267 83.499535,251.005234 92.830933,251.024200 
z"/>
<path fill="#3D3F42" opacity="1.000000" stroke="none" 
	d="
M145.879807,107.911972 
	C145.913589,109.026825 145.947388,110.141678 145.597076,111.526367 
	C143.357483,111.089989 141.501984,110.383766 139.008224,109.434616 
	C138.882202,112.206589 138.795990,114.102890 138.528168,116.304092 
	C137.538773,119.023483 136.730988,121.437965 135.520050,123.916985 
	C129.361160,123.886482 128.028702,122.445816 128.348816,115.893997 
	C128.470230,113.409363 128.684113,111.475578 124.862411,112.241867 
	C120.362877,111.718094 116.269913,111.285767 112.176956,110.853439 
	C112.146843,111.533348 112.116737,112.213257 112.086624,112.893166 
	C116.433754,112.893166 120.780876,112.893166 125.156845,113.338234 
	C124.170708,114.873703 123.252220,116.762390 122.121964,116.899002 
	C119.187325,117.253723 116.158524,116.860985 113.169159,116.725395 
	C104.942894,116.352242 96.894836,115.438667 90.567902,109.273636 
	C89.163460,107.905151 87.674545,106.623360 86.266830,105.340202 
	C82.677399,107.552963 79.353622,109.601944 74.786209,112.417587 
	C78.383736,111.810905 80.603737,111.235397 82.842491,111.149643 
	C83.857819,111.110748 84.910355,112.043205 85.945999,112.535027 
	C85.201767,113.428307 84.613182,114.855812 83.687286,115.125587 
	C78.772423,116.557594 73.772896,117.699051 68.662155,118.976273 
	C68.049889,117.243736 67.542053,115.806725 66.874153,113.916771 
	C63.570644,117.040756 66.013527,119.947769 66.390656,122.496941 
	C67.366425,129.092438 66.734947,130.136307 59.757370,130.054993 
	C58.385616,127.884583 57.313232,125.909180 56.235035,123.534492 
	C55.847305,121.198303 55.465389,119.261398 54.989494,116.847885 
	C52.182636,118.555954 50.109886,119.817291 48.037132,121.078629 
	C47.688622,119.663719 47.340111,118.248802 46.993137,116.005783 
	C47.664360,111.785416 48.334042,108.393166 49.300163,104.822952 
	C53.228336,99.785286 55.987965,93.763962 60.643887,90.268433 
	C80.041122,75.705620 101.350777,72.320992 123.666283,83.054199 
	C129.641525,85.928146 134.578125,90.961533 140.050568,95.348648 
	C141.711777,98.442375 143.313980,101.191025 144.916168,103.939667 
	C144.916168,103.939667 145.022995,104.356491 145.017944,104.914200 
	C145.301849,106.285255 145.590836,107.098618 145.879807,107.911972 
M80.474335,95.850449 
	C97.397728,92.219231 114.283524,91.651405 131.256073,96.963570 
	C127.772270,85.759804 110.750488,81.843292 94.081673,83.310547 
	C75.238235,84.969208 60.862289,93.577957 60.616589,102.663124 
	C66.926758,100.453575 73.288635,98.225906 80.474335,95.850449 
z"/>
<path fill="#464B52" opacity="1.000000" stroke="none" 
	d="
M139.991547,95.003563 
	C134.578125,90.961533 129.641525,85.928146 123.666283,83.054199 
	C101.350777,72.320992 80.041122,75.705620 60.643887,90.268433 
	C55.987965,93.763962 53.228336,99.785286 48.945572,104.819992 
	C47.821640,104.981873 47.348743,104.968750 46.875843,104.955635 
	C46.921631,104.514282 46.967419,104.072937 47.342255,103.255829 
	C47.742672,102.229958 47.814037,101.579826 47.885399,100.929703 
	C47.930103,100.493988 47.974804,100.058281 48.401196,99.221619 
	C51.870193,94.366203 54.585503,89.588364 58.119884,85.522530 
	C66.242004,76.179100 76.865417,71.216812 88.974060,69.145630 
	C90.384468,68.904381 91.648376,67.806702 92.980202,67.106064 
	C95.694061,67.068733 98.407928,67.031403 101.677483,67.396988 
	C108.852074,69.514854 115.470963,71.229820 122.089859,72.944786 
	C122.089859,72.944786 122.013947,72.963219 122.066216,73.282196 
	C126.075760,77.230118 129.986237,80.912338 134.019379,84.454895 
	C135.199524,85.491493 136.728638,86.130806 138.097794,86.952217 
	C138.097794,86.952217 138.030807,86.988266 138.034729,87.324486 
	C139.054764,89.094429 140.070877,90.528152 141.087006,91.961876 
	C141.087006,91.961876 141.022858,91.994354 141.014313,92.300804 
	C140.667679,93.406021 140.329605,94.204788 139.991547,95.003563 
z"/>
<path fill="#3AB173" opacity="1.000000" stroke="none" 
	d="
M139.998795,163.064713 
	C140.670181,165.708160 141.806412,168.330338 141.928604,170.998932 
	C142.349274,180.185242 142.405731,189.386688 138.731339,198.586121 
	C136.619843,198.314148 134.809982,197.647476 133.056351,196.614502 
	C134.388779,191.806808 135.856155,187.406387 136.822189,182.898529 
	C137.104050,181.583267 136.371017,179.309296 135.349899,178.660645 
	C134.289261,177.986877 132.041061,178.265549 130.793823,178.974731 
	C127.069946,181.092087 123.582024,183.624451 119.724953,185.865494 
	C118.624908,185.164627 117.801865,184.592987 117.039627,183.674866 
	C117.983795,182.429520 118.710419,181.222427 119.775452,180.680817 
	C127.924545,176.536819 132.279785,170.326538 131.395050,160.843323 
	C134.533188,161.561996 137.265991,162.313354 139.998795,163.064713 
z"/>
<path fill="#6467BF" opacity="1.000000" stroke="none" 
	d="
M94.045700,221.108688 
	C93.684654,223.471695 93.323601,225.834717 92.438828,228.599045 
	C86.000343,229.000153 80.085602,228.999939 74.170853,228.999725 
	C73.769135,224.944458 73.367409,220.889175 72.986221,216.017670 
	C73.075134,214.182434 73.143524,213.163467 73.658508,212.112396 
	C81.728714,212.113052 89.352318,212.145813 96.919556,212.508469 
	C95.814224,215.557739 91.667725,217.221863 94.045700,221.108688 
z"/>
<path fill="#6467BF" opacity="1.000000" stroke="none" 
	d="
M109.171295,229.000488 
	C108.780800,226.634323 108.390305,224.268143 108.189796,221.220032 
	C112.284401,217.570450 107.368492,214.980133 108.485703,212.102509 
	C115.239799,212.000687 121.529243,211.947983 127.897614,212.222321 
	C128.325974,213.095596 128.675430,213.641830 129.024872,214.188049 
	C128.672623,218.844254 128.320374,223.500473 127.441765,228.578461 
	C121.000702,229.000320 115.085991,229.000412 109.171295,229.000488 
z"/>
<path fill="#3CB374" opacity="1.000000" stroke="none" 
	d="
M61.830162,198.980286 
	C58.922211,189.633636 58.562752,180.021545 59.056507,170.360046 
	C59.168522,168.168198 60.093872,166.017914 61.078896,163.259064 
	C64.687805,161.946136 67.862679,161.222626 71.015854,160.948807 
	C69.087120,167.804611 71.481728,172.922714 75.892395,177.361053 
	C78.182777,179.665802 80.636887,181.807846 82.826210,184.257874 
	C81.759163,184.996231 80.882942,185.500092 79.952393,185.661545 
	C76.033234,181.519302 72.324738,177.539368 68.239708,173.993195 
	C66.094093,172.130600 63.561787,172.915955 64.143188,176.036407 
	C65.398697,182.774811 67.348534,189.383835 69.011383,196.285675 
	C69.008453,196.525543 68.993866,197.005127 68.628662,197.060425 
	C66.119026,197.737228 63.974594,198.358765 61.830162,198.980286 
z"/>
<path fill="#3B3D40" opacity="1.000000" stroke="none" 
	d="
M140.458130,163.049591 
	C137.265991,162.313354 134.533188,161.561996 131.111740,160.730103 
	C128.651886,160.381454 126.880669,160.113373 125.149323,159.514801 
	C128.839401,154.123337 132.489624,149.062363 136.473358,144.056061 
	C141.479370,148.976562 146.242447,153.761520 150.733017,158.789810 
	C151.460571,159.604492 150.978745,161.499222 151.055939,162.894714 
	C147.676437,162.941299 144.296951,162.987900 140.458130,163.049591 
z"/>
<path fill="#3B3D40" opacity="1.000000" stroke="none" 
	d="
M71.037544,160.499115 
	C67.862679,161.222626 64.687805,161.946136 61.194733,162.898651 
	C56.200386,163.074219 51.524242,163.020782 46.244701,162.596130 
	C46.165081,160.241379 46.284309,158.005600 47.321423,156.342072 
	C48.458164,154.518738 50.441868,153.223434 52.446350,151.792755 
	C56.674755,153.016220 57.738644,150.260925 59.250648,147.681702 
	C61.062424,148.408447 62.881351,148.680405 63.828289,149.735214 
	C66.691048,152.923996 69.215439,156.416565 71.748505,159.929184 
	C71.435219,160.219406 71.239304,160.363235 71.037544,160.499115 
z"/>
<path fill="#B97657" opacity="1.000000" stroke="none" 
	d="
M109.104370,229.450485 
	C115.085991,229.000412 121.000702,229.000320 127.372246,229.000305 
	C127.876884,232.033585 127.924690,235.066803 127.452469,238.544601 
	C122.625137,239.042191 118.317841,239.095200 113.609787,239.091705 
	C111.861649,239.022766 110.514282,239.010330 109.166908,238.997910 
	C109.123756,235.965439 109.080605,232.932953 109.104370,229.450485 
z"/>
<path fill="#B97657" opacity="1.000000" stroke="none" 
	d="
M74.103546,229.449799 
	C80.085602,228.999939 86.000343,229.000153 92.371902,229.000427 
	C92.873596,232.032898 92.918480,235.065308 92.512787,238.547241 
	C91.036324,239.051193 90.010429,239.105606 88.523010,239.104950 
	C83.427803,239.033371 78.794136,239.016846 74.160461,239.000305 
	C74.119057,235.966827 74.077652,232.933365 74.103546,229.449799 
z"/>
<path fill="#B37556" opacity="1.000000" stroke="none" 
	d="
M48.024879,121.454941 
	C50.109886,119.817291 52.182636,118.555954 54.989494,116.847885 
	C55.465389,119.261398 55.847305,121.198303 55.901398,123.700119 
	C51.173958,128.157883 51.778934,132.991821 52.865421,138.275665 
	C52.130016,140.446182 51.530937,142.282944 50.931862,144.119720 
	C44.883942,138.573746 42.826160,130.552567 48.024879,121.454941 
z"/>
<path fill="#505359" opacity="1.000000" stroke="none" 
	d="
M92.544563,67.065315 
	C91.648376,67.806702 90.384468,68.904381 88.974060,69.145630 
	C76.865417,71.216812 66.242004,76.179100 58.119884,85.522530 
	C54.585503,89.588364 51.870193,94.366203 48.459118,98.898254 
	C53.565350,83.489555 64.487122,73.755432 79.975693,69.071938 
	C83.870354,67.894249 88.056648,67.681023 92.544563,67.065315 
z"/>
<path fill="#B1C4D4" opacity="1.000000" stroke="none" 
	d="
M109.092194,239.432129 
	C110.514282,239.010330 111.861649,239.022766 113.618958,239.456024 
	C115.208641,241.335434 116.326309,243.966553 117.579735,244.032913 
	C121.354630,244.232712 125.182373,243.434174 128.989502,243.024994 
	C130.280899,244.467316 131.572296,245.909653 132.562805,247.683807 
	C124.310570,250.251160 116.668640,248.955856 109.172890,245.992371 
	C109.121086,243.950363 109.069290,241.908356 109.092194,239.432129 
z"/>
<path fill="#DC965E" opacity="1.000000" stroke="none" 
	d="
M148.795853,134.055313 
	C149.058167,135.516876 149.277634,136.987701 149.591537,138.438095 
	C150.279984,141.619019 149.858887,144.014771 145.147888,143.938614 
	C143.305573,142.556885 142.160675,141.259323 141.001877,139.603241 
	C140.310303,137.483826 139.632645,135.722931 138.978073,133.600464 
	C140.661896,131.854828 142.322632,130.470734 144.203613,129.323807 
	C145.881195,131.059082 147.338516,132.557205 148.795853,134.055313 
z"/>
<path fill="#464B52" opacity="1.000000" stroke="none" 
	d="
M141.015778,139.961761 
	C142.160675,141.259323 143.305573,142.556885 144.762558,143.983093 
	C147.673141,148.191055 149.910583,152.570694 152.978912,156.259155 
	C155.663528,159.486328 155.460281,161.294022 151.410202,162.910995 
	C150.978745,161.499222 151.460571,159.604492 150.733017,158.789810 
	C146.242447,153.761520 141.479370,148.976562 136.515259,143.715820 
	C137.821030,142.201187 139.418411,141.081467 141.015778,139.961761 
z"/>
<path fill="#E59B5D" opacity="1.000000" stroke="none" 
	d="
M50.961937,144.453735 
	C51.530937,142.282944 52.130016,140.446182 53.264427,138.267212 
	C55.600758,138.902817 57.401749,139.880615 59.160019,141.283478 
	C59.031235,143.667313 58.945175,145.626083 58.859116,147.584854 
	C57.738644,150.260925 56.674755,153.016220 52.283562,151.532227 
	C51.197662,150.088806 50.664410,149.000626 50.131157,147.912460 
	C50.418110,146.870880 50.705063,145.829315 50.961937,144.453735 
z"/>
<path fill="#B8CCDC" opacity="1.000000" stroke="none" 
	d="
M74.085297,239.358459 
	C78.794136,239.016846 83.427803,239.033371 88.525482,239.483673 
	C88.006569,244.486969 84.224472,246.672943 78.632599,245.901031 
	C76.379807,245.590057 74.127640,245.274521 71.875191,244.961044 
	C72.586838,243.212891 73.298485,241.464752 74.085297,239.358459 
z"/>
<path fill="#B1C4D4" opacity="1.000000" stroke="none" 
	d="
M71.603935,245.051514 
	C74.127640,245.274521 76.379807,245.590057 78.632599,245.901031 
	C84.224472,246.672943 88.006569,244.486969 88.987015,239.538742 
	C90.010429,239.105606 91.036324,239.051193 92.447662,238.997375 
	C92.879417,241.041885 92.925728,243.085770 92.526352,245.577087 
	C90.849297,246.449280 89.589706,246.806870 88.391281,247.310120 
	C82.214325,249.903992 76.092529,250.069550 70.016731,247.004868 
	C70.455383,246.383896 70.894028,245.762939 71.603935,245.051514 
z"/>
<path fill="#29985D" opacity="1.000000" stroke="none" 
	d="
M133.000122,196.980820 
	C134.809982,197.647476 136.619843,198.314148 138.802216,198.979080 
	C141.367630,201.795349 140.056274,205.000961 134.964661,207.612854 
	C132.658691,206.390594 130.883774,205.526123 129.082520,204.343048 
	C129.029800,203.374695 129.003448,202.724976 129.031281,201.728302 
	C129.727646,199.901108 130.369812,198.420837 131.343292,196.949600 
	C132.116440,196.966034 132.558289,196.973419 133.000122,196.980820 
z"/>
<path fill="#29985D" opacity="1.000000" stroke="none" 
	d="
M61.523777,199.123627 
	C63.974594,198.358765 66.119026,197.737228 68.877625,197.265778 
	C70.334625,198.893967 71.177460,200.372086 71.767868,202.070145 
	C71.335739,203.153793 71.156036,204.017502 70.662331,204.975067 
	C68.976662,205.977234 67.604988,206.885513 66.233322,207.793793 
	C62.031273,206.641953 59.826069,202.893204 61.523777,199.123627 
z"/>
<path fill="#B97657" opacity="1.000000" stroke="none" 
	d="
M138.709778,115.999191 
	C138.795990,114.102890 138.882202,112.206589 139.008224,109.434616 
	C141.501984,110.383766 143.357483,111.089989 145.552826,111.942963 
	C147.580124,114.815613 149.267563,117.541496 150.554977,120.574234 
	C148.420181,120.928703 146.685410,120.976318 144.666931,120.846893 
	C142.492081,119.112976 140.600922,117.556084 138.709778,115.999191 
z"/>
<path fill="#B37556" opacity="1.000000" stroke="none" 
	d="
M144.950653,121.023933 
	C146.685410,120.976318 148.420181,120.928703 150.492981,120.937225 
	C153.564331,125.571243 151.090927,129.439453 148.969360,133.717285 
	C147.338516,132.557205 145.881195,131.059082 144.365906,128.950439 
	C144.522171,125.901245 144.736420,123.462593 144.950653,121.023933 
z"/>
<path fill="#ABBDCC" opacity="1.000000" stroke="none" 
	d="
M70.009140,247.001038 
	C76.092529,250.069550 82.214325,249.903992 88.391281,247.310120 
	C89.589706,246.806870 90.849297,246.449280 92.453888,246.008392 
	C92.874962,247.392532 92.922821,248.792770 92.900803,250.608612 
	C83.499535,251.005234 74.168144,250.986267 64.361855,250.948257 
	C65.342506,250.027252 66.798042,249.125275 68.788605,247.979675 
	C69.549385,247.494431 69.775154,247.252823 70.000923,247.011215 
	C70.000923,247.011215 70.001549,246.997223 70.009140,247.001038 
z"/>
<path fill="#B8CCDC" opacity="1.000000" stroke="none" 
	d="
M128.991425,242.663391 
	C125.182373,243.434174 121.354630,244.232712 117.579735,244.032913 
	C116.326309,243.966553 115.208641,241.335434 114.019722,239.512543 
	C118.317841,239.095200 122.625137,239.042191 127.385986,238.994720 
	C128.224152,240.100784 128.608749,241.201309 128.991425,242.663391 
z"/>
<path fill="#ABBDCC" opacity="1.000000" stroke="none" 
	d="
M109.096695,246.406952 
	C116.668640,248.955856 124.310570,250.251160 132.690338,247.989517 
	C134.681686,248.749496 136.244614,249.535599 137.959534,250.624908 
	C128.769272,250.957413 119.426987,250.986694 109.626839,251.020111 
	C109.119484,249.623367 109.069992,248.222443 109.096695,246.406952 
z"/>
<path fill="#505359" opacity="1.000000" stroke="none" 
	d="
M121.913055,72.629913 
	C115.470963,71.229820 108.852074,69.514854 102.126778,67.452972 
	C109.228867,66.433128 115.590958,68.963776 121.913055,72.629913 
z"/>
<path fill="#505359" opacity="1.000000" stroke="none" 
	d="
M138.046082,86.607025 
	C136.728638,86.130806 135.199524,85.491493 134.019379,84.454895 
	C129.986237,80.912338 126.075760,77.230118 122.085297,73.248123 
	C129.057556,75.333405 133.641403,80.659943 138.046082,86.607025 
z"/>
<path fill="#505359" opacity="1.000000" stroke="none" 
	d="
M49.969810,148.224976 
	C50.664410,149.000626 51.197662,150.088806 51.893700,151.437500 
	C50.441868,153.223434 48.458164,154.518738 47.321423,156.342072 
	C46.284309,158.005600 46.165081,160.241379 45.775940,162.546082 
	C41.456799,161.890305 42.526535,159.094772 44.073013,156.552643 
	C45.775715,153.753708 47.879444,151.198746 49.969810,148.224976 
z"/>
<path fill="#A26B50" opacity="1.000000" stroke="none" 
	d="
M129.108871,204.661652 
	C130.883774,205.526123 132.658691,206.390594 134.598907,207.524185 
	C133.057251,209.822342 131.350281,211.851379 129.334091,214.034241 
	C128.675430,213.641830 128.325974,213.095596 127.946182,211.819946 
	C128.313507,208.947540 128.711182,206.804596 129.108871,204.661652 
z"/>
<path fill="#A26B50" opacity="1.000000" stroke="none" 
	d="
M66.491821,208.007355 
	C67.604988,206.885513 68.976662,205.977234 70.896751,205.275818 
	C72.034088,207.703278 72.623001,209.923874 73.211914,212.144485 
	C73.143524,213.163467 73.075134,214.182434 72.899902,215.567322 
	C70.778809,213.362442 68.764565,210.791687 66.491821,208.007355 
z"/>
<path fill="#505359" opacity="1.000000" stroke="none" 
	d="
M140.050568,95.348648 
	C140.329605,94.204788 140.667679,93.406021 141.024384,92.266296 
	C142.352722,95.662811 143.662415,99.400269 144.944138,103.538696 
	C143.313980,101.191025 141.711777,98.442375 140.050568,95.348648 
z"/>
<path fill="#505359" opacity="1.000000" stroke="none" 
	d="
M46.584694,105.244926 
	C47.348743,104.968750 47.821640,104.981873 48.649132,104.997955 
	C48.334042,108.393166 47.664360,111.785416 46.992233,115.617256 
	C46.757710,112.549301 46.525627,109.041763 46.584694,105.244926 
z"/>
<path fill="#505359" opacity="1.000000" stroke="none" 
	d="
M141.029312,91.624176 
	C140.070877,90.528152 139.054764,89.094429 138.044250,87.287659 
	C139.023773,88.371902 139.997696,89.829185 141.029312,91.624176 
z"/>
<path fill="#505359" opacity="1.000000" stroke="none" 
	d="
M47.646927,101.103485 
	C47.814037,101.579826 47.742672,102.229958 47.403786,102.928741 
	C47.226994,102.410690 47.317726,101.843987 47.646927,101.103485 
z"/>
<path fill="#505359" opacity="1.000000" stroke="none" 
	d="
M145.918427,107.570877 
	C145.590836,107.098618 145.301849,106.285255 145.026886,105.129166 
	C145.346252,105.600883 145.651642,106.415337 145.918427,107.570877 
z"/>
<path fill="#B1C4D4" opacity="1.000000" stroke="none" 
	d="
M69.728241,247.039886 
	C69.775154,247.252823 69.549385,247.494431 69.101288,247.850769 
	C69.071159,247.666519 69.263359,247.367554 69.728241,247.039886 
z"/>
<path fill="#5E61B1" opacity="1.000000" stroke="none" 
	d="
M108.021057,212.151611 
	C107.368492,214.980133 112.284401,217.570450 108.162613,220.817719 
	C103.618660,221.073868 99.291885,221.050369 94.505402,221.067780 
	C91.667725,217.221863 95.814224,215.557739 97.376518,212.446472 
	C101.266930,212.086914 104.643990,212.119263 108.021057,212.151611 
z"/>
<path fill="#BE7958" opacity="1.000000" stroke="none" 
	d="
M59.250648,147.681702 
	C58.945175,145.626083 59.031235,143.667313 59.500546,141.203903 
	C59.941448,137.216171 59.999096,133.733078 60.056744,130.249985 
	C66.734947,130.136307 67.366425,129.092438 66.390656,122.496941 
	C66.013527,119.947769 63.570644,117.040756 66.874153,113.916771 
	C67.542053,115.806725 68.049889,117.243736 68.662155,118.976273 
	C73.772896,117.699051 78.772423,116.557594 83.687286,115.125587 
	C84.613182,114.855812 85.201767,113.428307 85.945999,112.535027 
	C84.910355,112.043205 83.857819,111.110748 82.842491,111.149643 
	C80.603737,111.235397 78.383736,111.810905 74.786209,112.417587 
	C79.353622,109.601944 82.677399,107.552963 86.266830,105.340202 
	C87.674545,106.623360 89.163460,107.905151 90.567902,109.273636 
	C96.894836,115.438667 104.942894,116.352242 113.169159,116.725395 
	C116.158524,116.860985 119.187325,117.253723 122.121964,116.899002 
	C123.252220,116.762390 124.170708,114.873703 125.201370,113.201035 
	C125.217064,112.618774 125.268982,112.333313 125.268982,112.333313 
	C128.684113,111.475578 128.470230,113.409363 128.348816,115.893997 
	C128.028702,122.445816 129.361160,123.886482 135.791641,124.233322 
	C136.646286,126.220070 136.636444,128.003387 137.062698,129.675568 
	C137.443176,131.168182 138.305359,132.538010 138.954987,133.962021 
	C139.632645,135.722931 140.310303,137.483826 141.001877,139.603241 
	C139.418411,141.081467 137.821030,142.201187 136.181763,143.661133 
	C132.489624,149.062363 128.839401,154.123337 124.885498,159.641418 
	C124.090912,160.393250 123.600014,160.687958 122.795578,160.987823 
	C121.989365,161.315826 121.496696,161.638672 121.006851,161.982361 
	C121.009689,162.003204 120.969757,161.990005 120.581726,161.992645 
	C117.462471,162.996857 114.731232,163.998428 111.586411,165.015289 
	C105.116188,165.689667 99.059547,166.348770 92.596031,166.993988 
	C89.790665,166.624756 87.392174,166.269424 84.742523,165.681122 
	C82.685715,165.022141 80.880066,164.596130 78.876602,163.880981 
	C76.409760,162.324814 74.140732,161.057770 71.871704,159.790726 
	C69.215439,156.416565 66.691048,152.923996 63.828289,149.735214 
	C62.881351,148.680405 61.062424,148.408447 59.250648,147.681702 
M73.679672,132.793167 
	C74.761032,141.144943 80.012863,144.136154 86.698242,139.407120 
	C90.209671,132.977875 89.902634,130.352097 84.686081,125.333221 
	C82.524445,125.270538 80.362816,125.207855 77.340805,125.083054 
	C74.794769,125.290138 72.248741,125.497223 69.039261,125.758270 
	C70.904823,128.314789 72.244164,130.150177 73.679672,132.793167 
M117.499626,121.871338 
	C115.364220,122.238754 113.228813,122.606178 110.775688,123.624748 
	C110.231010,124.805710 109.681099,125.984299 109.142586,127.168068 
	C107.249184,131.330215 109.449959,135.873169 114.204567,137.746552 
	C120.687172,139.420090 123.885406,136.011795 124.046158,126.666389 
	C124.679436,124.941223 125.312714,123.216057 126.270821,120.605988 
	C122.903908,121.099594 120.554626,121.444008 117.499626,121.871338 
M107.923157,154.248718 
	C107.069038,148.052185 104.670174,146.091980 99.100044,147.038940 
	C95.461411,147.657516 92.831512,151.045639 94.241501,154.800674 
	C95.139870,157.193192 97.772972,159.885788 100.157608,160.553604 
	C104.080254,161.652161 106.496178,158.636246 107.923157,154.248718 
M101.988388,133.986801 
	C99.997986,134.055389 97.789558,133.618561 96.086502,134.353226 
	C94.735603,134.936005 93.212440,136.966019 93.233635,138.330643 
	C93.252441,139.541870 95.093170,141.261398 96.489975,141.773209 
	C98.086929,142.358368 100.269218,142.326004 101.850380,141.694153 
	C103.381317,141.082428 105.205132,139.526382 105.515182,138.086777 
	C105.747932,137.006119 103.786255,135.452835 101.988388,133.986801 
z"/>
<path fill="#70A0BB" opacity="1.000000" stroke="none" 
	d="
M80.062424,95.924347 
	C73.288635,98.225906 66.926758,100.453575 60.616589,102.663124 
	C60.862289,93.577957 75.238235,84.969208 94.081673,83.310547 
	C110.750488,81.843292 127.772270,85.759804 131.256073,96.963570 
	C114.283524,91.651405 97.397728,92.219231 80.062424,95.924347 
z"/>
<path fill="#A35F40" opacity="1.000000" stroke="none" 
	d="
M138.978073,133.600464 
	C138.305359,132.538010 137.443176,131.168182 137.062698,129.675568 
	C136.636444,128.003387 136.646286,126.220070 136.194794,124.168777 
	C136.730988,121.437965 137.538773,119.023483 138.528168,116.304092 
	C140.600922,117.556084 142.492081,119.112976 144.666946,120.846893 
	C144.736420,123.462593 144.522171,125.901245 144.145660,128.713272 
	C142.322632,130.470734 140.661896,131.854828 138.978073,133.600464 
z"/>
<path fill="#A35F40" opacity="1.000000" stroke="none" 
	d="
M59.757370,130.054993 
	C59.999096,133.733078 59.941448,137.216171 59.543266,140.778839 
	C57.401749,139.880615 55.600758,138.902817 53.400757,137.933472 
	C51.778934,132.991821 51.173958,128.157883 55.907207,124.099396 
	C57.313232,125.909180 58.385616,127.884583 59.757370,130.054993 
z"/>
<path fill="#77584B" opacity="1.000000" stroke="none" 
	d="
M124.862411,112.241867 
	C125.268982,112.333313 125.217064,112.618774 125.172531,112.755966 
	C120.780876,112.893166 116.433754,112.893166 112.086624,112.893166 
	C112.116737,112.213257 112.146843,111.533348 112.176956,110.853439 
	C116.269913,111.285767 120.362877,111.718094 124.862411,112.241867 
z"/>
<path fill="#25A160" opacity="1.000000" stroke="none" 
	d="
M80.006721,186.003952 
	C80.882942,185.500092 81.759163,184.996231 83.244026,184.249817 
	C85.591721,183.528717 87.330772,183.050171 89.476639,182.693176 
	C96.913368,182.831558 103.943291,182.848404 111.245712,183.140656 
	C113.338417,183.617813 115.158615,183.819580 116.978821,184.021347 
	C117.801865,184.592987 118.624908,185.164627 119.720055,186.196838 
	C119.979431,187.098953 119.966705,187.540482 119.608963,188.142075 
	C107.162331,191.875427 94.974770,191.431778 82.798935,188.859238 
	C81.707764,188.628677 80.915581,186.982986 79.989502,185.998108 
	C79.994461,186.001694 80.006721,186.003952 80.006721,186.003952 
z"/>
<path fill="#38A86D" opacity="1.000000" stroke="none" 
	d="
M117.039627,183.674866 
	C115.158615,183.819580 113.338417,183.617813 111.409645,182.849411 
	C113.332657,180.882507 115.461288,179.602539 117.376228,178.057678 
	C121.771439,174.511917 122.987907,169.595795 121.096664,163.468048 
	C121.051422,162.777283 121.010590,162.383652 120.969757,161.990005 
	C120.969757,161.990005 121.009689,162.003204 121.302658,161.937881 
	C122.100121,161.575928 122.604614,161.279297 123.109116,160.982666 
	C123.600014,160.687958 124.090912,160.393250 124.845627,159.971924 
	C126.880669,160.113373 128.651886,160.381454 130.706390,160.762772 
	C132.279785,170.326538 127.924545,176.536819 119.775452,180.680817 
	C118.710419,181.222427 117.983795,182.429520 117.039627,183.674866 
z"/>
<path fill="#3BBA77" opacity="1.000000" stroke="none" 
	d="
M119.953972,187.982025 
	C119.966705,187.540482 119.979431,187.098953 119.997055,186.326065 
	C123.582024,183.624451 127.069946,181.092087 130.793823,178.974731 
	C132.041061,178.265549 134.289261,177.986877 135.349899,178.660645 
	C136.371017,179.309296 137.104050,181.583267 136.822189,182.898529 
	C135.856155,187.406387 134.388779,191.806808 133.056351,196.614502 
	C132.558289,196.973419 132.116440,196.966034 131.122253,196.706406 
	C128.159531,195.182861 127.455025,193.417419 129.338303,190.918304 
	C130.381271,188.987473 131.076813,187.141357 131.772369,185.295227 
	C131.169281,185.547546 130.566193,185.799866 129.737549,186.042496 
	C129.511993,186.032806 129.060608,186.021179 128.669556,186.028503 
	C125.503662,186.684570 122.728813,187.333298 119.953972,187.982025 
z"/>
<path fill="#3B3D40" opacity="1.000000" stroke="none" 
	d="
M108.485703,212.102509 
	C104.643990,212.119263 101.266930,212.086914 97.432892,212.116577 
	C89.352318,212.145813 81.728714,212.113052 73.658508,212.112396 
	C72.623001,209.923874 72.034088,207.703278 71.210754,205.181931 
	C71.156036,204.017502 71.335739,203.153793 72.205482,202.114075 
	C74.946716,201.902298 76.997910,201.866562 79.510651,201.889923 
	C93.632660,201.910965 107.293106,201.872925 121.397293,201.887634 
	C124.219704,201.985336 126.598396,202.030289 128.977081,202.075241 
	C129.003448,202.724976 129.029800,203.374695 129.082520,204.343033 
	C128.711182,206.804596 128.313507,208.947540 127.867264,211.492889 
	C121.529243,211.947983 115.239799,212.000687 108.485703,212.102509 
z"/>
<path fill="#3AB173" opacity="1.000000" stroke="none" 
	d="
M89.069824,182.571625 
	C87.330772,183.050171 85.591721,183.528717 83.434853,184.015320 
	C80.636887,181.807846 78.182777,179.665802 75.892395,177.361053 
	C71.481728,172.922714 69.087120,167.804611 71.015854,160.948807 
	C71.239304,160.363235 71.435219,160.219406 71.748505,159.929184 
	C74.140732,161.057770 76.409760,162.324814 78.823250,163.953400 
	C78.967712,164.314957 78.965370,164.497818 78.701187,164.833069 
	C76.349411,174.410309 82.354889,178.707703 89.069824,182.571625 
z"/>
<path fill="#3BBA77" opacity="1.000000" stroke="none" 
	d="
M69.014313,196.045792 
	C67.348534,189.383835 65.398697,182.774811 64.143188,176.036407 
	C63.561787,172.915955 66.094093,172.130600 68.239708,173.993195 
	C72.324738,177.539368 76.033234,181.519302 79.952393,185.661545 
	C80.006721,186.003952 79.994461,186.001694 79.618950,185.988693 
	C75.867012,184.303864 72.490593,182.632034 69.114166,180.960205 
	C68.662895,181.335724 68.211617,181.711243 67.760345,182.086746 
	C68.528267,183.403488 69.296196,184.720215 70.179832,186.237427 
	C70.489288,186.687881 70.729622,186.879395 71.008957,187.007553 
	C71.001373,187.002625 70.993324,186.983704 70.993317,187.400726 
	C71.235596,189.419815 71.906868,191.113647 71.589714,192.596008 
	C71.316887,193.871231 69.916267,194.905167 69.014313,196.045792 
z"/>
<path fill="#25A763" opacity="1.000000" stroke="none" 
	d="
M69.011383,196.285675 
	C69.916267,194.905167 71.316887,193.871231 71.589714,192.596008 
	C71.906868,191.113647 71.235596,189.419815 71.288254,187.562744 
	C76.245193,191.031509 79.659409,195.396713 79.049095,201.830841 
	C76.997910,201.866562 74.946716,201.902298 72.457916,201.894104 
	C71.177460,200.372086 70.334625,198.893967 69.242828,197.210495 
	C68.993866,197.005127 69.008453,196.525543 69.011383,196.285675 
z"/>
<path fill="#25A763" opacity="1.000000" stroke="none" 
	d="
M129.031281,201.728302 
	C126.598396,202.030289 124.219704,201.985336 121.407959,201.484146 
	C120.590607,194.594391 124.247002,190.473984 129.013184,187.389923 
	C129.006500,188.862091 128.998688,189.932556 128.990891,191.003021 
	C127.455025,193.417419 128.159531,195.182861 130.790924,196.697372 
	C130.369812,198.420837 129.727646,199.901108 129.031281,201.728302 
z"/>
<path fill="#996248" opacity="1.000000" stroke="none" 
	d="
M120.581726,161.992645 
	C121.010590,162.383652 121.051422,162.777283 120.998749,163.835052 
	C116.478790,176.639053 103.587097,182.005875 90.949341,176.606964 
	C88.926300,172.816498 86.959991,169.365280 84.993690,165.914078 
	C87.392174,166.269424 89.790665,166.624756 92.650261,167.343719 
	C96.043137,171.904465 100.542496,173.749756 105.022995,172.462753 
	C108.799049,171.378113 112.539757,170.163071 112.000000,165.000000 
	C114.731232,163.998428 117.462471,162.996857 120.581726,161.992645 
z"/>
<path fill="#A96140" opacity="1.000000" stroke="none" 
	d="
M107.858246,154.632568 
	C106.496178,158.636246 104.080254,161.652161 100.157608,160.553604 
	C97.772972,159.885788 95.139870,157.193192 94.241501,154.800674 
	C92.831512,151.045639 95.461411,147.657516 99.100044,147.038940 
	C104.670174,146.091980 107.069038,148.052185 107.858246,154.632568 
z"/>
<path fill="#444649" opacity="1.000000" stroke="none" 
	d="
M113.958389,137.115891 
	C109.449959,135.873169 107.249184,131.330215 109.142586,127.168068 
	C109.681099,125.984299 110.231010,124.805710 111.311890,123.328033 
	C116.451050,122.959633 118.387642,125.891800 118.722427,129.836319 
	C119.008965,133.212250 118.365349,136.544388 113.958389,137.115891 
z"/>
<path fill="#444649" opacity="1.000000" stroke="none" 
	d="
M85.132721,126.018730 
	C89.902634,130.352097 90.209671,132.977875 86.066254,139.641724 
	C80.466286,140.426834 79.078491,137.357681 78.867714,133.254227 
	C78.603111,128.103073 80.018349,126.528694 85.132721,126.018730 
z"/>
<path fill="#915B42" opacity="1.000000" stroke="none" 
	d="
M111.586411,165.015289 
	C112.539757,170.163071 108.799049,171.378113 105.022995,172.462753 
	C100.542496,173.749756 96.043137,171.904465 93.057144,167.357605 
	C99.059547,166.348770 105.116188,165.689667 111.586411,165.015289 
z"/>
<path fill="#F6F4F3" opacity="1.000000" stroke="none" 
	d="
M114.081482,137.431213 
	C118.365349,136.544388 119.008965,133.212250 118.722427,129.836319 
	C118.387642,125.891800 116.451050,122.959633 111.470749,123.002457 
	C113.228813,122.606178 115.364220,122.238754 118.159592,121.959747 
	C120.503639,123.846878 122.187714,125.645607 123.871788,127.444336 
	C123.885406,136.011795 120.687172,139.420090 114.081482,137.431213 
z"/>
<path fill="#F6F4F3" opacity="1.000000" stroke="none" 
	d="
M84.909401,125.675980 
	C80.018349,126.528694 78.603111,128.103073 78.867714,133.254227 
	C79.078491,137.357681 80.466286,140.426834 85.851418,139.919800 
	C80.012863,144.136154 74.761032,141.144943 73.758873,132.039276 
	C75.292442,129.238632 76.746811,127.191902 78.201180,125.145164 
	C80.362816,125.207855 82.524445,125.270538 84.909401,125.675980 
z"/>
<path fill="#965435" opacity="1.000000" stroke="none" 
	d="
M102.394958,134.048386 
	C103.786255,135.452835 105.747932,137.006119 105.515182,138.086777 
	C105.205132,139.526382 103.381317,141.082428 101.850380,141.694153 
	C100.269218,142.326004 98.086929,142.358368 96.489975,141.773209 
	C95.093170,141.261398 93.252441,139.541870 93.233635,138.330643 
	C93.212440,136.966019 94.735603,134.936005 96.086502,134.353226 
	C97.789558,133.618561 99.997986,134.055389 102.394958,134.048386 
z"/>
<path fill="#A26B50" opacity="1.000000" stroke="none" 
	d="
M84.742523,165.681122 
	C86.959991,169.365280 88.926300,172.816498 90.600739,176.589600 
	C84.859528,174.297989 80.729530,170.478836 78.965370,164.497818 
	C78.965370,164.497818 78.967712,164.314957 79.021065,164.242523 
	C80.880066,164.596130 82.685715,165.022141 84.742523,165.681122 
z"/>
<path fill="#464B52" opacity="1.000000" stroke="none" 
	d="
M77.770996,125.114105 
	C76.746811,127.191902 75.292442,129.238632 73.710785,131.635468 
	C72.244164,130.150177 70.904823,128.314789 69.039261,125.758270 
	C72.248741,125.497223 74.794769,125.290138 77.770996,125.114105 
z"/>
<path fill="#444649" opacity="1.000000" stroke="none" 
	d="
M123.958969,127.055359 
	C122.187714,125.645607 120.503639,123.846878 118.512451,121.918289 
	C120.554626,121.444008 122.903908,121.099594 126.270821,120.605988 
	C125.312714,123.216057 124.679436,124.941223 123.958969,127.055359 
z"/>
<path fill="#996248" opacity="1.000000" stroke="none" 
	d="
M122.795578,160.987823 
	C122.604614,161.279297 122.100121,161.575928 121.299820,161.917038 
	C121.496696,161.638672 121.989365,161.315826 122.795578,160.987823 
z"/>
<path fill="#3DBE7B" opacity="1.000000" stroke="none" 
	d="
M129.012054,186.988235 
	C124.247002,190.473984 120.590607,194.594391 120.964226,201.431396 
	C107.293106,201.872925 93.632660,201.910965 79.510651,201.889908 
	C79.659409,195.396713 76.245193,191.031509 71.288261,187.145721 
	C70.993324,186.983704 71.001373,187.002625 70.886154,186.811096 
	C70.579231,186.372086 70.343628,186.177872 70.064117,186.036942 
	C69.296196,184.720215 68.528267,183.403488 67.760345,182.086746 
	C68.211617,181.711243 68.662895,181.335724 69.114166,180.960205 
	C72.490593,182.632034 75.867012,184.303864 79.613991,185.985107 
	C80.915581,186.982986 81.707764,188.628677 82.798935,188.859238 
	C94.974770,191.431778 107.162331,191.875427 119.608963,188.142075 
	C122.728813,187.333298 125.503662,186.684570 128.649857,186.277588 
	C129.009842,186.685669 128.998489,186.851990 128.992584,187.010742 
	C128.998032,187.003204 129.012054,186.988235 129.012054,186.988235 
z"/>
<path fill="#DBDCDA" opacity="1.000000" stroke="none" 
	d="
M78.701187,164.833069 
	C80.729530,170.478836 84.859528,174.297989 90.657486,176.928864 
	C103.587097,182.005875 116.478790,176.639053 121.003159,164.132172 
	C122.987907,169.595795 121.771439,174.511917 117.376228,178.057678 
	C115.461288,179.602539 113.332657,180.882507 111.137146,182.574005 
	C103.943291,182.848404 96.913368,182.831558 89.476639,182.693176 
	C82.354889,178.707703 76.349411,174.410309 78.701187,164.833069 
z"/>
<path fill="#3DBE7B" opacity="1.000000" stroke="none" 
	d="
M129.338303,190.918304 
	C128.998688,189.932556 129.006500,188.862091 129.013184,187.389923 
	C129.012054,186.988235 128.998032,187.003204 129.192383,186.889374 
	C129.634384,186.578659 129.826523,186.337540 129.963104,186.052185 
	C130.566193,185.799866 131.169281,185.547546 131.772369,185.295227 
	C131.076813,187.141357 130.381271,188.987473 129.338303,190.918304 
z"/>
<path fill="#25A763" opacity="1.000000" stroke="none" 
	d="
M129.737549,186.042496 
	C129.826523,186.337540 129.634384,186.578659 129.186920,186.896912 
	C128.998489,186.851990 129.009842,186.685669 129.040909,186.270264 
	C129.060608,186.021179 129.511993,186.032806 129.737549,186.042496 
z"/>
<path fill="#25A763" opacity="1.000000" stroke="none" 
	d="
M70.179832,186.237427 
	C70.343628,186.177872 70.579231,186.372086 70.893738,186.816025 
	C70.729622,186.879395 70.489288,186.687881 70.179832,186.237427 
z"/>
</svg>